<?xml version="1.0" encoding="UTF-8"?>
<svg version="1.1" xmlns="http://www.w3.org/2000/svg" width="396" height="127">
<path d="M0 0 C130.68 0 261.36 0 396 0 C396 41.91 396 83.82 396 127 C265.32 127 134.64 127 0 127 C0 85.09 0 43.18 0 0 Z " fill="#FDFDFD" transform="translate(0,0)"/>
<path d="M0 0 C34.98 0 69.96 0 106 0 C106 41.91 106 83.82 106 127 C59.8 127 13.6 127 -34 127 C-34 126.67 -34 126.34 -34 126 C-33.41992188 125.82984375 -32.83984375 125.6596875 -32.2421875 125.484375 C-24.1121654 122.96218992 -18.16479007 119.63544846 -14 112 C-11.87623483 106.84450812 -11.71774146 102.33893323 -11.74462891 96.86108398 C-11.74100845 95.96115723 -11.737388 95.06123047 -11.73365784 94.1340332 C-11.72678514 92.18777413 -11.7242544 90.24149588 -11.72560501 88.29522514 C-11.72657252 85.21418648 -11.71360264 82.13349447 -11.69662476 79.05250549 C-11.6504108 70.2955286 -11.62573458 61.53858886 -11.61914062 52.78149414 C-11.61412941 47.41872725 -11.58990423 42.05632512 -11.55381393 36.69368172 C-11.54401172 34.65196992 -11.54168628 32.61020799 -11.54698563 30.56847954 C-11.55404694 27.71509569 -11.53679483 24.86280225 -11.51416016 22.00952148 C-11.52233261 21.16730545 -11.53050507 20.32508942 -11.53892517 19.45735168 C-11.48312356 15.50494562 -11.27294003 13.45221984 -9.18661499 9.99549866 C-6.18829552 7.25924078 -4.00663766 7.0715471 0 7 C2.77299171 7.94344267 3.77276329 8.61145328 5.265625 11.1640625 C5.75289063 12.38222656 5.75289063 12.38222656 6.25 13.625 C6.58515625 14.44226562 6.9203125 15.25953125 7.265625 16.1015625 C7.50796875 16.72804688 7.7503125 17.35453125 8 18 C9.32 17.67 10.64 17.34 12 17 C11.88611241 12.24778151 11.71160666 8.95558609 8.8125 5.0625 C5.90833782 2.93278106 3.47362803 1.88860252 0 1 C0 0.67 0 0.34 0 0 Z " fill="#FCFCFC" transform="translate(290,0)"/>
<path d="M0 0 C3.88955087 3.4265091 5.44153812 6.40449643 5.9375 11.5625 C5.625 14.3125 5.625 14.3125 3.625 16.3125 C1.609375 16.22265625 1.609375 16.22265625 -0.375 15.3125 C-1.421875 13.24609375 -1.421875 13.24609375 -2.125 10.75 C-2.36734375 9.92371094 -2.6096875 9.09742188 -2.859375 8.24609375 C-3.02953125 7.60800781 -3.1996875 6.96992188 -3.375 6.3125 C-4.76364434 6.00693774 -6.16181264 5.74449192 -7.5625 5.5 C-8.72845703 5.27376953 -8.72845703 5.27376953 -9.91796875 5.04296875 C-12.58636576 5.12514404 -12.58636576 5.12514404 -14.99131775 7.26922607 C-18.20852476 11.37667043 -18.06124772 14.20212666 -17.97094727 19.27441406 C-17.9750058 20.16776962 -17.97906433 21.06112518 -17.98324585 21.98155212 C-17.98875748 23.91746279 -17.98277032 25.8534329 -17.96658516 27.78928375 C-17.94115016 30.85903269 -17.94596931 33.92743959 -17.95848083 36.99725342 C-17.97923103 43.5191497 -17.95956129 50.0406311 -17.9375 56.5625 C-17.91636362 64.10860436 -17.91191329 71.65427529 -17.93800163 79.20037079 C-17.94134944 82.21447925 -17.92018057 85.22775062 -17.89759827 88.24176025 C-17.90011147 90.10551125 -17.90367343 91.96926123 -17.90844727 93.83300781 C-17.89556168 94.66241379 -17.88267609 95.49181976 -17.86940002 96.34635925 C-17.94014617 104.67954108 -21.04175043 111.66960616 -26.66796875 117.80859375 C-32.5124633 122.95763357 -39.54104157 124.68821764 -47.20703125 124.515625 C-55.79695915 123.71080293 -61.67467099 119.6398652 -67.375 113.3125 C-71.52137081 107.75056712 -72.18564099 102.12985781 -71.375 95.3125 C-69.83269023 93.77019023 -68.3709029 94.15002513 -66.22241211 94.10717773 C-64.90115578 94.0772599 -64.90115578 94.0772599 -63.5532074 94.04673767 C-62.59592239 94.03002518 -61.63863739 94.01331268 -60.65234375 93.99609375 C-59.67713272 93.97531265 -58.70192169 93.95453156 -57.69715881 93.93312073 C-54.5690137 93.86751588 -51.44078178 93.80868972 -48.3125 93.75 C-46.1972565 93.70682517 -44.08202191 93.66321123 -41.96679688 93.61914062 C-36.76962413 93.51182345 -31.57236423 93.4100778 -26.375 93.3125 C-26.37135437 92.27568588 -26.36770874 91.23887177 -26.36395264 90.17063904 C-26.32696692 80.38639688 -26.26915509 70.60246842 -26.19109726 60.81846523 C-26.15163479 55.78871314 -26.11944022 50.75913581 -26.10400391 45.72924805 C-26.0888293 40.87257692 -26.05436929 36.01638626 -26.00669098 31.15992928 C-25.99188551 29.3096847 -25.98395946 27.45937153 -25.98311615 25.60906792 C-25.98074221 23.01156627 -25.9536292 20.41538784 -25.92089844 17.81811523 C-25.92844398 16.67767258 -25.92844398 16.67767258 -25.93614197 15.51419067 C-25.82986992 10.0419304 -24.46182719 6.84621362 -21.375 2.3125 C-14.97524223 -3.76726988 -7.7570577 -3.87852885 0 0 Z " fill="#090909" transform="translate(297.375,2.6875)"/>
<path d="M0 0 C4.04142215 -0.11662261 8.08240865 -0.1873935 12.125 -0.25 C13.26710938 -0.28351562 14.40921875 -0.31703125 15.5859375 -0.3515625 C26.21893882 -0.47520205 26.21893882 -0.47520205 31 4 C33.48386059 7.72579089 33.3804212 9.58711402 33 14 C31.34860695 17.5386994 30.28394771 18.81070153 27 21 C27.763125 21.391875 28.52625 21.78375 29.3125 22.1875 C32.37598385 24.2535705 33.53969284 25.61823604 35 29 C35.54223844 33.26044487 35.30065535 35.42096006 33.3125 39.25 C30.33087482 42.79571643 27.83357671 44.75884394 23.16918945 45.37231445 C21.65651489 45.36784302 21.65651489 45.36784302 20.11328125 45.36328125 C19.01048828 45.36263672 17.90769531 45.36199219 16.77148438 45.36132812 C15.63001953 45.34521484 14.48855469 45.32910156 13.3125 45.3125 C12.15943359 45.31572266 11.00636719 45.31894531 9.81835938 45.32226562 C1.26709619 45.26709619 1.26709619 45.26709619 -1 43 C-1.18787689 39.93807869 -1.25546369 36.96813873 -1.23046875 33.90625 C-1.23001053 33.0037854 -1.22955231 32.1013208 -1.2290802 31.17150879 C-1.2260564 29.26162401 -1.21816631 27.35174173 -1.20581055 25.44189453 C-1.18757441 22.51195578 -1.1853007 19.58233328 -1.18554688 16.65234375 C-1.18063097 14.79947642 -1.17480233 12.94661125 -1.16796875 11.09375 C-1.16685593 10.21352173 -1.1657431 9.33329346 -1.16459656 8.4263916 C-1.1160626 2.23212519 -1.1160626 2.23212519 0 0 Z " fill="#060606" transform="translate(1,39)"/>
<path d="M0 0 C3.29714793 0.32971479 4.6226839 0.6226839 7 3 C7.639375 2.505 8.27875 2.01 8.9375 1.5 C13.07087427 -0.52450984 16.47726219 -0.82956743 21 0 C25.60164304 2.72689958 27.99774586 5.74590273 29.59765625 10.75390625 C30.73703144 17.11449588 29.65562835 23.64711563 26 29 C22.18171742 32.47116598 18.32415639 32.35293538 13.40234375 32.3984375 C10.5551975 31.92622788 9.15060312 30.87743182 7 29 C6.95101563 29.91523437 6.90203125 30.83046875 6.8515625 31.7734375 C6.77679688 32.96195313 6.70203125 34.15046875 6.625 35.375 C6.55539062 36.55835938 6.48578125 37.74171875 6.4140625 38.9609375 C6 42 6 42 4 44 C0.875 43.625 0.875 43.625 -2 43 C-2.04934656 37.19760386 -2.08569402 31.39532919 -2.10986328 25.59277344 C-2.11993627 23.61781691 -2.13359521 21.64287534 -2.15087891 19.66796875 C-2.17507039 16.83329582 -2.18646991 13.99881962 -2.1953125 11.1640625 C-2.20563507 10.27756012 -2.21595764 9.39105774 -2.22659302 8.47769165 C-2.2269907 6.31714048 -2.12272534 4.15706282 -2 2 C-1.34 1.34 -0.68 0.68 0 0 Z " fill="#070707" transform="translate(366,52)"/>
<path d="M0 0 C4.18037917 2.06742063 6.36003681 5.02167181 8.125 9.18359375 C9.62551833 14.13267175 9.85118856 18.13668328 7.6171875 22.88671875 C4.86439356 27.32533224 2.95414887 29.91316443 -2.20703125 31.38671875 C-7.97801665 32.00787613 -13.34951788 32.13624169 -18.76953125 29.94921875 C-22.99263453 25.50954607 -24.8745449 20.79724477 -25.70703125 14.76171875 C-24.88757093 9.23036159 -22.70549001 5.74246715 -18.58203125 2.01171875 C-13.1269961 -1.72067372 -6.33681804 -1.76085032 0 0 Z " fill="#080808" transform="translate(311.20703125,52.61328125)"/>
<path d="M0 0 C2.23012151 1.43983573 3.66790925 2.78113101 4.859375 5.1640625 C4.94429 7.0504537 4.966568 8.93984765 4.95703125 10.828125 C4.95380859 11.94960937 4.95058594 13.07109375 4.94726562 14.2265625 C4.93888672 15.4021875 4.93050781 16.5778125 4.921875 17.7890625 C4.91736328 18.97242187 4.91285156 20.15578125 4.90820312 21.375 C4.89638967 24.30473757 4.87991758 27.23437522 4.859375 30.1640625 C2.47265625 30.75390625 2.47265625 30.75390625 -0.140625 31.1640625 C-1.953125 29.7265625 -1.953125 29.7265625 -3.140625 28.1640625 C-3.96240234 28.89109375 -3.96240234 28.89109375 -4.80078125 29.6328125 C-8.92278122 32.33034838 -13.39695785 31.89385745 -18.140625 31.1640625 C-21.33676223 29.15864306 -22.64967045 27.90928049 -23.67578125 24.26171875 C-24.019134 21.00923182 -23.76853009 18.99648524 -21.7734375 16.3515625 C-15.79945746 10.82894984 -9.89080853 11.03043865 -2.140625 11.1640625 C-2.800625 9.5140625 -3.460625 7.8640625 -4.140625 6.1640625 C-9.58755814 6.06718029 -14.77967167 6.03544075 -20.140625 7.1640625 C-20.470625 5.8440625 -20.800625 4.5240625 -21.140625 3.1640625 C-15.45996095 -2.02968749 -7.17955338 -2.80369421 0 0 Z " fill="#080808" transform="translate(101.140625,52.8359375)"/>
<path d="M0 0 C3.90863741 1.95431871 6.98579156 4.07759409 9 8 C9.33 10.97 9.66 13.94 10 17 C2.08 17 -5.84 17 -14 17 C-11.98848737 23.77489892 -11.98848737 23.77489892 -9 25 C-7.23132545 25.09683564 -5.45881697 25.12979382 -3.6875 25.125 C-2.74261719 25.12757812 -1.79773438 25.13015625 -0.82421875 25.1328125 C1.88595736 25.005363 4.35973585 24.60596226 7 24 C7.33 25.32 7.66 26.64 8 28 C1.72390072 32.67058551 -4.31760121 33.11269 -12 32 C-16.2184708 30.30829243 -18.39062342 27.88457891 -20.9375 24.1875 C-22.82970566 18.51088301 -22.77072867 14.12612611 -20.3125 8.75 C-15.62774096 0.26408416 -9.02582129 -0.93062847 0 0 Z " fill="#080808" transform="translate(64,52)"/>
<path d="M0 0 C4.55555556 0.55555556 4.55555556 0.55555556 6 2 C6.13278578 3.52507546 6.20329065 5.05569075 6.24609375 6.5859375 C6.27896484 7.51664063 6.31183594 8.44734375 6.34570312 9.40625 C6.40665608 11.37749436 6.46397748 13.34885452 6.51757812 15.3203125 C6.56881836 16.72023438 6.56881836 16.72023438 6.62109375 18.1484375 C6.6461499 19.00614746 6.67120605 19.86385742 6.69702148 20.74755859 C6.86999599 23.28039101 6.86999599 23.28039101 9 26 C12.45769191 26.58342353 12.45769191 26.58342353 16 26 C18.72892793 23.20857754 19.37701484 21.15351993 19.44140625 17.3046875 C19.46783203 16.42425781 19.49425781 15.54382813 19.52148438 14.63671875 C19.53501953 13.72535156 19.54855469 12.81398438 19.5625 11.875 C19.5968708 10.05971267 19.63943864 8.24455632 19.69140625 6.4296875 C19.70373291 5.62772949 19.71605957 4.82577148 19.72875977 3.99951172 C20 2 20 2 22 0 C26.55555556 0.55555556 26.55555556 0.55555556 28 2 C28.2541555 6.64015325 28.18522798 11.29121306 28.1875 15.9375 C28.19974609 17.25169922 28.21199219 18.56589844 28.22460938 19.91992188 C28.22750977 21.7984082 28.22750977 21.7984082 28.23046875 23.71484375 C28.23457764 24.87105225 28.23868652 26.02726074 28.24291992 27.21850586 C28 30 28 30 26 32 C22.70285207 31.67028521 21.3773161 31.3773161 19 29 C18.17822266 29.72703125 18.17822266 29.72703125 17.33984375 30.46875 C13.23429173 33.15552194 8.72606371 32.76317177 4 32 C0.58688333 29.47429367 -0.66637768 28.00086696 -2 24 C-2.22981985 20.31631611 -2.18515707 16.62761186 -2.1875 12.9375 C-2.19974609 11.91849609 -2.21199219 10.89949219 -2.22460938 9.84960938 C-2.22654297 8.87701172 -2.22847656 7.90441406 -2.23046875 6.90234375 C-2.23457764 6.01023193 -2.23868652 5.11812012 -2.24291992 4.19897461 C-2 2 -2 2 0 0 Z " fill="#070707" transform="translate(328,52)"/>
<path d="M0 0 C4.55555556 0.55555556 4.55555556 0.55555556 6 2 C6.1329878 3.60988191 6.20333763 5.22504425 6.24609375 6.83984375 C6.27896484 7.82017578 6.31183594 8.80050781 6.34570312 9.81054688 C6.4067832 11.89116828 6.46408969 13.97190397 6.51757812 16.05273438 C6.56881836 17.52516602 6.56881836 17.52516602 6.62109375 19.02734375 C6.6461499 19.93218506 6.67120605 20.83702637 6.69702148 21.76928711 C6.7981385 24.20180987 6.7981385 24.20180987 9 26 C13.09322663 26.48863054 13.09322663 26.48863054 16.66381836 24.765625 C18.35720923 22.52798517 18.39470954 21.22476207 18.44140625 18.4375 C18.46783203 17.55835937 18.49425781 16.67921875 18.52148438 15.7734375 C18.54178711 14.40058594 18.54178711 14.40058594 18.5625 13 C18.59696648 11.18731839 18.63958919 9.37476862 18.69140625 7.5625 C18.70373291 6.75941406 18.71605957 5.95632812 18.72875977 5.12890625 C19 3 19 3 21 0 C25.875 0.875 25.875 0.875 27 2 C27.10003289 4.13353174 27.13081048 6.27037542 27.1328125 8.40625 C27.13410156 9.70691406 27.13539063 11.00757813 27.13671875 12.34765625 C27.13357666 13.36883545 27.13357666 13.36883545 27.13037109 14.41064453 C27.1250224 16.49128515 27.1303168 18.57170989 27.13671875 20.65234375 C27.13542969 21.95300781 27.13414062 23.25367188 27.1328125 24.59375 C27.13168457 25.79708984 27.13055664 27.00042969 27.12939453 28.24023438 C27 31 27 31 26 32 C24.33382885 32.04063832 22.66611905 32.042721 21 32 C20.67 30.68 20.34 29.36 20 28 C19.21625 28.66 18.4325 29.32 17.625 30 C13.36864775 32.8308281 8.93775274 32.83118838 4 32 C0.44319828 29.89495409 -0.69468936 28.91593192 -2 25 C-2.23110721 21.1496374 -2.18516126 17.2940756 -2.1875 13.4375 C-2.19974609 12.37080078 -2.21199219 11.30410156 -2.22460938 10.20507812 C-2.22654297 9.18736328 -2.22847656 8.16964844 -2.23046875 7.12109375 C-2.23457764 6.1870874 -2.23868652 5.25308105 -2.24291992 4.29077148 C-2 2 -2 2 0 0 Z " fill="#0A0A0A" transform="translate(217,52)"/>
<path d="M0 0 C4.70588235 0.70588235 4.70588235 0.70588235 6 2 C6.14488463 3.52464933 6.22705052 5.05537892 6.28125 6.5859375 C6.31863281 7.51664063 6.35601562 8.44734375 6.39453125 9.40625 C6.42933594 10.3859375 6.46414062 11.365625 6.5 12.375 C6.56891899 14.29962648 6.64167101 16.22412055 6.71875 18.1484375 C6.74904297 19.00614746 6.77933594 19.86385742 6.81054688 20.74755859 C6.92504068 23.16779201 6.92504068 23.16779201 8 26 C9.8871875 26.0928125 9.8871875 26.0928125 11.8125 26.1875 C12.52019531 26.22230469 13.22789062 26.25710937 13.95703125 26.29296875 C16.64134405 25.90802906 17.33823104 25.11619061 19 23 C19.47047387 20.71878714 19.47047387 20.71878714 19.44140625 18.18359375 C19.46783203 17.25482422 19.49425781 16.32605469 19.52148438 15.36914062 C19.54178711 13.91797852 19.54178711 13.91797852 19.5625 12.4375 C19.59686618 10.51935782 19.63943121 8.60133957 19.69140625 6.68359375 C19.70373291 5.83337646 19.71605957 4.98315918 19.72875977 4.10717773 C20 2 20 2 22 0 C26.55555556 0.55555556 26.55555556 0.55555556 28 2 C28.2541555 6.64015325 28.18522798 11.29121306 28.1875 15.9375 C28.19974609 17.25169922 28.21199219 18.56589844 28.22460938 19.91992188 C28.22750977 21.7984082 28.22750977 21.7984082 28.23046875 23.71484375 C28.23457764 24.87105225 28.23868652 26.02726074 28.24291992 27.21850586 C28 30 28 30 26 32 C22.70285207 31.67028521 21.3773161 31.3773161 19 29 C18.44183594 29.48597656 17.88367188 29.97195312 17.30859375 30.47265625 C13.45249821 33.02381252 9.46559241 32.67200663 5 32 C2.06576805 30.20353146 0.52794645 29.0558929 -1 26 C-1.09677483 24.12567237 -1.13075828 22.24791692 -1.1328125 20.37109375 C-1.13410156 19.25412109 -1.13539062 18.13714844 -1.13671875 16.98632812 C-1.13285156 15.81521484 -1.12898438 14.64410156 -1.125 13.4375 C-1.12886719 12.26251953 -1.13273437 11.08753906 -1.13671875 9.87695312 C-1.13542969 8.76126953 -1.13414063 7.64558594 -1.1328125 6.49609375 C-1.13168457 5.46669678 -1.13055664 4.4372998 -1.12939453 3.37670898 C-1 1 -1 1 0 0 Z " fill="#050505" transform="translate(116,52)"/>
<path d="M0 0 C1.16402344 0.02320313 1.16402344 0.02320313 2.3515625 0.046875 C4.375 0.25 4.375 0.25 6.375 1.25 C6.045 2.9 5.715 4.55 5.375 6.25 C3.395 6.58 1.415 6.91 -0.625 7.25 C-0.625 9.23 -0.625 11.21 -0.625 13.25 C1.025 13.91 2.675 14.57 4.375 15.25 C4.375 16.57 4.375 17.89 4.375 19.25 C2.395 19.58 0.415 19.91 -1.625 20.25 C-1.65005615 21.0020874 -1.6751123 21.7541748 -1.70092773 22.52905273 C-1.81650514 25.91539196 -1.93940345 29.30142613 -2.0625 32.6875 C-2.10181641 33.87150391 -2.14113281 35.05550781 -2.18164062 36.27539062 C-2.22353516 37.40009766 -2.26542969 38.52480469 -2.30859375 39.68359375 C-2.34525146 40.72572021 -2.38190918 41.76784668 -2.41967773 42.84155273 C-2.625 45.25 -2.625 45.25 -3.625 46.25 C-6.0625 46.4375 -6.0625 46.4375 -8.625 46.25 C-10.625 44.25 -10.625 44.25 -10.85205078 41.72802734 C-10.84157715 40.6911377 -10.83110352 39.65424805 -10.8203125 38.5859375 C-10.81064453 36.90371094 -10.81064453 36.90371094 -10.80078125 35.1875 C-10.78402344 34.011875 -10.76726562 32.83625 -10.75 31.625 C-10.74097656 30.44164063 -10.73195312 29.25828125 -10.72265625 28.0390625 C-10.69902812 25.10917477 -10.66608514 22.1796866 -10.625 19.25 C-12.275 19.25 -13.925 19.25 -15.625 19.25 C-15.295 17.6 -14.965 15.95 -14.625 14.25 C-13.635 13.92 -12.645 13.59 -11.625 13.25 C-10.70395841 10.76719223 -10.16397531 8.27350353 -9.56640625 5.6953125 C-7.77091924 1.03151637 -4.79610679 -0.16040491 0 0 Z " fill="#0B0B0B" transform="translate(204.625,37.75)"/>
<path d="M0 0 C12.87 0 25.74 0 39 0 C36.92966883 6.21099351 34.87847829 10.72419869 29.109375 14.109375 C23.77361972 16.33610752 18.45254495 17.13376708 12.89453125 15.30859375 C7.95726315 13.0946968 5.03423329 10.46210778 2 6 C1.34 4.02 0.68 2.04 0 0 Z " fill="#F9F9F9" transform="translate(233,104)"/>
<path d="M0 0 C4.70588235 0.70588235 4.70588235 0.70588235 6 2 C6.07179964 3.51928038 6.08392007 5.04167482 6.0625 6.5625 C6.05347656 7.38878906 6.04445312 8.21507812 6.03515625 9.06640625 C6.02355469 9.70449219 6.01195312 10.34257813 6 11 C7.98 11 9.96 11 12 11 C12.33 12.65 12.66 14.3 13 16 C10.69 16.33 8.38 16.66 6 17 C6.33 23.27 6.66 29.54 7 36 C9.31 36.66 11.62 37.32 14 38 C13.67 39.65 13.34 41.3 13 43 C11.25215533 43.13560864 9.50126074 43.23227209 7.75 43.3125 C6.77546875 43.37050781 5.8009375 43.42851563 4.796875 43.48828125 C2 43 2 43 -0.34375 41.15625 C-2.77888224 36.51571498 -2.42993589 32.33989509 -2.25 27.1875 C-2.23195312 26.20845703 -2.21390625 25.22941406 -2.1953125 24.22070312 C-2.14832887 21.81279229 -2.08265694 19.40690665 -2 17 C-3.98 16.67 -5.96 16.34 -8 16 C-7.67 14.35 -7.34 12.7 -7 11 C-5.35 11 -3.7 11 -2 11 C-1.93941406 10.28972656 -1.87882813 9.57945313 -1.81640625 8.84765625 C-1.73261719 7.92855469 -1.64882812 7.00945313 -1.5625 6.0625 C-1.48128906 5.14597656 -1.40007812 4.22945312 -1.31640625 3.28515625 C-1 1 -1 1 0 0 Z " fill="#080808" transform="translate(157,41)"/>
<path d="M0 0 C2.5625 0.1875 2.5625 0.1875 4.5625 2.1875 C4.76260854 5.16553039 4.84222613 8.04854914 4.828125 11.02734375 C4.83003845 11.90524063 4.8319519 12.78313751 4.83392334 13.68763733 C4.83528565 15.54623704 4.83158599 17.40484625 4.82324219 19.26342773 C4.81255601 22.11008089 4.82312925 24.9561011 4.8359375 27.80273438 C4.83461566 29.60677223 4.83205277 31.41080969 4.828125 33.21484375 C4.83217346 34.06803696 4.83622192 34.92123016 4.84039307 35.80027771 C4.79242618 41.84261072 4.79242618 41.84261072 2.5625 45.1875 C0 45.4375 0 45.4375 -2.4375 45.1875 C-3.96834425 43.65665575 -3.56465779 42.27546856 -3.56689453 40.14257812 C-3.57004669 39.28498901 -3.57319885 38.4273999 -3.57644653 37.54382324 C-3.5744223 36.61154907 -3.57239807 35.6792749 -3.5703125 34.71875 C-3.57126923 33.76810669 -3.57222595 32.81746338 -3.57321167 31.8380127 C-3.57389357 29.82381118 -3.57203862 27.80960748 -3.56787109 25.79541016 C-3.56252298 22.70079645 -3.56781577 19.6063279 -3.57421875 16.51171875 C-3.57355797 14.55989551 -3.57227681 12.60807236 -3.5703125 10.65625 C-3.57233673 9.72397583 -3.57436096 8.79170166 -3.57644653 7.83117676 C-3.57329437 6.97358765 -3.57014221 6.11599854 -3.56689453 5.23242188 C-3.56609894 4.47376831 -3.56530334 3.71511475 -3.56448364 2.93347168 C-3.36141642 0.14138283 -2.79086187 0.21468168 0 0 Z " fill="#0C0C0C" transform="translate(256.4375,38.8125)"/>
<path d="M0 0 C4.22995247 0.96936411 5.57949999 2.05674998 8 5.6875 C8.80027376 10.72318486 8.68655728 15.12714254 6.625 19.8125 C4.4511055 22.32083981 3.44385465 22.63925493 0.125 23 C-3 22.6875 -3 22.6875 -5.3125 20.8125 C-8.34675127 16.99159099 -8.3991566 14.02100704 -8.34375 9.2421875 C-7.65897101 4.15303455 -5.13393394 1.17652653 0 0 Z " fill="#F8F8F8" transform="translate(303,56.3125)"/>
<path d="M0 0 C3.76796338 1.18621069 4.46977963 1.72695098 6.375 5.0625 C7.19518149 10.43431932 7.19537629 15.42174743 4.75 20.3125 C2.375 22.0625 2.375 22.0625 -0.625 22.625 C-4.2275741 21.94951736 -5.37505199 20.89576787 -7.625 18.0625 C-9.60863972 14.09522056 -9.16505202 9.3767087 -8.625 5.0625 C-6.00785299 0.93851077 -4.89711073 0.08443294 0 0 Z " fill="#F8F8F8" transform="translate(380.625,56.9375)"/>
<path d="M0 0 C4.55555556 0.55555556 4.55555556 0.55555556 6 2 C6.2541555 6.64015325 6.18522798 11.29121306 6.1875 15.9375 C6.19974609 17.25169922 6.21199219 18.56589844 6.22460938 19.91992188 C6.22750977 21.7984082 6.22750977 21.7984082 6.23046875 23.71484375 C6.23457764 24.87105225 6.23868652 26.02726074 6.24291992 27.21850586 C6 30 6 30 4 32 C0.875 31.625 0.875 31.625 -2 31 C-2.04939115 26.90661348 -2.08571501 22.81334202 -2.10986328 18.71972656 C-2.11992877 17.32679219 -2.13358234 15.93387898 -2.15087891 14.54101562 C-2.1751022 12.5404564 -2.18540814 10.53974385 -2.1953125 8.5390625 C-2.20578613 7.33459473 -2.21625977 6.13012695 -2.22705078 4.88916016 C-2 2 -2 2 0 0 Z " fill="#0A0A0A" transform="translate(178,52)"/>
<path d="M0 0 C13.34520217 -0.49426675 13.34520217 -0.49426675 16.421875 1.828125 C18 4 18 4 18.5 7 C17.87352624 10.75884259 17.02227202 11.71867209 14 14 C9.2805118 14.53387876 4.76525513 14.17649093 0 14 C0 9.38 0 4.76 0 0 Z " fill="#F8F8F8" transform="translate(9,64)"/>
<path d="M0 0 C12.470079 -0.37039839 12.470079 -0.37039839 14.89453125 1.32421875 C16.62064064 3.94082981 16.38086549 5.95307606 16 9 C14.45493534 11.03667615 13.27853844 11.86073078 11 13 C7.32984725 13.1377685 3.67388652 13.04271961 0 13 C0 8.71 0 4.42 0 0 Z " fill="#FAFAFA" transform="translate(9,45)"/>
<path d="M0 0 C-0.59449312 6.30162703 -0.59449312 6.30162703 -2.125 8.9375 C-5.09825923 10.6223469 -7.66669094 10.3030281 -11 10 C-13 8 -13 8 -13.4375 5.5625 C-13 3 -13 3 -11 1.1875 C-7.07906008 -0.36453872 -4.19832596 -0.2134742 0 0 Z " fill="#F4F4F4" transform="translate(99,69)"/>
<path d="M0 0 C1.9375 1.3125 1.9375 1.3125 3 3 C3 4.32 3 5.64 3 7 C-1.95 7 -6.9 7 -12 7 C-11 2 -11 2 -9.375 0.125 C-5.9196228 -1.51175762 -3.64481875 -0.92777204 0 0 Z " fill="#F4F4F4" transform="translate(63,58)"/>
<path d="M0 0 C2.5625 0.1875 2.5625 0.1875 4.5625 2.1875 C4.1875 4.8125 4.1875 4.8125 3.5625 7.1875 C1.25 7.8125 1.25 7.8125 -1.4375 8.1875 C-2.4275 7.5275 -3.4175 6.8675 -4.4375 6.1875 C-3.3735 0.2595 -3.3735 0.2595 0 0 Z " fill="#171717" transform="translate(179.4375,37.8125)"/>
</svg>
