<?xml version="1.0" encoding="UTF-8"?>
<svg version="1.1" xmlns="http://www.w3.org/2000/svg" width="225" height="225">
<path d="M0 0 C74.25 0 148.5 0 225 0 C225 74.25 225 148.5 225 225 C150.75 225 76.5 225 0 225 C0 150.75 0 76.5 0 0 Z " fill="#FEFEFE" transform="translate(0,0)"/>
<path d="M0 0 C2 2 2 2 2.16015625 3.91015625 C2.11181641 4.97556641 2.11181641 4.97556641 2.0625 6.0625 C2.041875 7.361875 2.02125 8.66125 2 10 C3.66342837 11.66342837 5.7825709 11.36048097 8.0625 11.5625 C8.98160156 11.64628906 9.90070312 11.73007812 10.84765625 11.81640625 C11.55792969 11.87699219 12.26820312 11.93757813 13 12 C13.0825 12.78375 13.165 13.5675 13.25 14.375 C13.70864452 17.08956034 13.70864452 17.08956034 15.75 18.09375 C18.07834677 19.03155634 20.29310542 19.61916876 22.75 20.125 C23.54921875 20.29257812 24.3484375 20.46015625 25.171875 20.6328125 C25.77515625 20.75398438 26.3784375 20.87515625 27 21 C27.495 22.98 27.495 22.98 28 25 C28.680625 25.0825 29.36125 25.165 30.0625 25.25 C33 26 33 26 36.16015625 27.859375 C40.71372961 30.52774147 45.56472183 32.08828765 50.56640625 33.7109375 C52.6484375 34.4375 52.6484375 34.4375 56 36 C56.8515625 38 56.8515625 38 57 40 C57.66 40.99 58.32 41.98 59 43 C51.25 42.125 51.25 42.125 49 41 C45.95826106 40.83329727 45.95826106 40.83329727 43 41 C41.7409055 42.03073493 41.7409055 42.03073493 41.93066406 44.25878906 C42.78744312 74.58088942 44.01908047 103.46793935 65.7890625 126.61328125 C68 129 68 129 70.40234375 132.015625 C80.86378269 144.03448116 98.67206309 151.94579475 114 155 C117.18854526 155.29817656 117.18854526 155.29817656 120 155 C120.66 154.34 121.32 153.68 122 153 C122.99 153 123.98 153 125 153 C125.12375 152.38125 125.2475 151.7625 125.375 151.125 C126 149 126 149 128 147 C131.125 146.875 131.125 146.875 134 147 C133.43125124 150.98124131 132.12345246 153.61272328 130 157 C131.25296875 157 132.5059375 157 133.796875 157 C152.5 157 152.5 157 159.25 157.5 C160.51328125 157.5928125 161.7765625 157.685625 163.078125 157.78125 C164.04234375 157.8534375 165.0065625 157.925625 166 158 C166.625 160.375 166.625 160.375 167 163 C164.47029206 165.52970794 162.58928278 165.75360268 159.125 166.5625 C158.07570312 166.81128906 157.02640625 167.06007812 155.9453125 167.31640625 C154.97335938 167.54199219 154.00140625 167.76757812 153 168 C152.29101562 168.19722656 151.58203125 168.39445313 150.8515625 168.59765625 C149 169 149 169 145.25 168.875 C142.17889569 168.82446866 140.02131072 169.23336032 137.19921875 170.43359375 C111.04007602 180.68425019 71.10275263 175.20064832 45.859375 164.25 C36.60335976 160.00096075 28.78178238 154.51816414 21 148 C20.20207031 147.37738281 19.40414062 146.75476563 18.58203125 146.11328125 C-3.27153422 128.28231898 -14.68449856 98.4089723 -21.390625 72.0625 C-22.92480741 66.10236689 -24.85159876 60.44554905 -27.15234375 54.734375 C-28.54198113 50.25167378 -28.53163253 47.10756777 -26.5 42.875 C-23.41725665 39.32984515 -20.2863731 37.76864909 -16 36 C-16.33 36 -16.66 36 -17 36 C-17.99 36 -18.98 36 -20 36 C-20 33.75 -20 33.75 -19 31 C-16.47332213 29.32801232 -13.80063432 28.14194429 -11 27 C-11.06960937 26.40832031 -11.13921875 25.81664063 -11.2109375 25.20703125 C-11.64788065 18.82974189 -11.64788065 18.82974189 -9.6640625 16.2890625 C-8 14.9375 -8 14.9375 -5 13 C-5.46090175 10.41895019 -5.94672804 9.06556549 -7.625 7 C-9 5 -9 5 -8.8125 2.8125 C-7.11660507 -0.97065022 -3.65692958 -0.2285581 0 0 Z " fill="#0E0E0E" transform="translate(48,22)"/>
<path d="M0 0 C0.05391993 1.79133978 0.09275571 3.58313899 0.125 5.375 C0.14820313 6.37273437 0.17140625 7.37046875 0.1953125 8.3984375 C0 11 0 11 -2 13 C-2.66 13 -3.32 13 -4 13 C-3.67 11.02 -3.34 9.04 -3 7 C-3.66 7 -4.32 7 -5 7 C-5 9.64 -5 12.28 -5 15 C-4.195625 14.814375 -3.39125 14.62875 -2.5625 14.4375 C-1.2940625 14.2209375 -1.2940625 14.2209375 0 14 C1 15 1 15 1.0625 17.3359375 C1.041875 18.33882812 1.02125 19.34171875 1 20.375 C0.95050918 26.27854795 1.11157554 32.15394771 2 38 C2.33 38.33 2.66 38.66 3 39 C3.43494841 40.44488194 3.82400535 41.90367101 4.19140625 43.3671875 C4.41376953 44.25277344 4.63613281 45.13835937 4.86523438 46.05078125 C5.09533203 46.98277344 5.32542969 47.91476563 5.5625 48.875 C5.91344727 50.26138672 5.91344727 50.26138672 6.27148438 51.67578125 C6.49255859 52.56394531 6.71363281 53.45210937 6.94140625 54.3671875 C7.24606812 55.59091064 7.24606812 55.59091064 7.55688477 56.83935547 C8.0528021 59.25746481 8 61.5405353 8 64 C9.29491266 65.16901838 10.6381959 66.28463658 12 67.375 C16.77899624 71.48312768 19.95857463 76.03631027 23.2734375 81.36328125 C24.72769685 83.58415243 26.12985339 85.16237768 28 87 C28.391875 87.94875 28.78375 88.8975 29.1875 89.875 C32.5100858 95.6035962 38.03318533 97.70408008 44.0625 99.9375 C48.36300598 101.54197012 51.02664446 103.61759608 54.328125 106.73828125 C57.09438813 108.82590506 59.59611761 108.86106602 63 109 C63 109.66 63 110.32 63 111 C64.06541016 111.18175781 64.06541016 111.18175781 65.15234375 111.3671875 C66.07144531 111.53476563 66.99054688 111.70234375 67.9375 111.875 C68.85402344 112.03742188 69.77054687 112.19984375 70.71484375 112.3671875 C71.46894531 112.57601562 72.22304687 112.78484375 73 113 C73.33 113.66 73.66 114.32 74 115 C70.47227426 116.76386287 66.72729059 115.77416902 63 115 C59.40039021 113.78136116 55.86502609 112.45831 52.33203125 111.05859375 C47.97164764 109.67329017 44.6441909 109.33449416 40.375 111.0625 C37.6763291 112.12776483 36.64558832 112.0947262 34 111 C33.34 110.34 32.68 109.68 32 109 C30.989375 108.71125 29.97875 108.4225 28.9375 108.125 C27.4834375 107.568125 27.4834375 107.568125 26 107 C25.31640625 104.9296875 25.31640625 104.9296875 25 103 C23.84371094 102.76216797 23.84371094 102.76216797 22.6640625 102.51953125 C21.66117187 102.28621094 20.65828125 102.05289063 19.625 101.8125 C18.12839844 101.48185547 18.12839844 101.48185547 16.6015625 101.14453125 C14 100 14 100 12.6484375 97.38671875 C12.43445313 96.59910156 12.22046875 95.81148438 12 95 C14.97 95.495 14.97 95.495 18 96 C17.67 96.66 17.34 97.32 17 98 C19.31 98.66 21.62 99.32 24 100 C18.69195292 91.95231572 11.32701156 88.79790452 2.88378906 84.89306641 C-0.84890214 83.12347278 -4.42509956 81.06549803 -8 79 C-4.2734375 77.8984375 -4.2734375 77.8984375 -1.8125 78.8125 C0 80 0 80 1 82 C1.99 82 2.98 82 4 82 C3.54086322 78.51400668 3.54086322 78.51400668 2 75 C-1.42215347 73.74843159 -1.42215347 73.74843159 -5 73 C-6.9375 70.875 -6.9375 70.875 -8 69 C-7.01 68.67 -6.02 68.34 -5 68 C-5.34227572 65.02934491 -5.34227572 65.02934491 -6 62 C-6.99 61.505 -6.99 61.505 -8 61 C-7.67 62.32 -7.34 63.64 -7 65 C-7.66 65 -8.32 65 -9 65 C-9.433125 64.030625 -9.86625 63.06125 -10.3125 62.0625 C-11.7014861 58.72268235 -11.7014861 58.72268235 -15 58 C-15.33 58.99 -15.66 59.98 -16 61 C-19.94357872 58.8567507 -21.72176562 57.86561807 -23.125 53.5 C-23.41375 52.345 -23.7025 51.19 -24 50 C-25.97827485 47.60090837 -25.97827485 47.60090837 -28 46 C-26.02 46.33 -24.04 46.66 -22 47 C-22.99 45.02 -23.98 43.04 -25 41 C-26.98 41.66 -28.96 42.32 -31 43 C-31.33 41.02 -31.66 39.04 -32 37 C-32.495 39.475 -32.495 39.475 -33 42 C-33.99 42 -34.98 42 -36 42 C-35.21625 42.763125 -34.4325 43.52625 -33.625 44.3125 C-31 47 -31 47 -29 50 C-31.475 50.495 -31.475 50.495 -34 51 C-36.76430261 46.74803835 -39.11366596 42.7158351 -41 38 C-42.52007842 36.22722741 -42.52007842 36.22722741 -44 35 C-42.68 33.68 -41.36 32.36 -40 31 C-38.68 31.66 -37.36 32.32 -36 33 C-36 33.66 -36 34.32 -36 35 C-36.66 35 -37.32 35 -38 35 C-37.34 36.65 -36.68 38.3 -36 40 C-36 37.36 -36 34.72 -36 32 C-37.1446875 31.566875 -37.1446875 31.566875 -38.3125 31.125 C-41 30 -41 30 -44 28 C-43.25 23.25 -43.25 23.25 -41 21 C-38.375 20.375 -38.375 20.375 -36 20 C-36.33 16.7 -36.66 13.4 -37 10 C-33.53320312 9.31640625 -33.53320312 9.31640625 -30.06640625 8.6328125 C-29.38449219 8.42398438 -28.70257813 8.21515625 -28 8 C-27.67 7.34 -27.34 6.68 -27 6 C-25.35 6 -23.7 6 -22 6 C-21.67 5.01 -21.34 4.02 -21 3 C-19.3125 2.4375 -19.3125 2.4375 -17 2 C-16.071875 1.690625 -15.14375 1.38125 -14.1875 1.0625 C-13.135625 0.711875 -12.08375 0.36125 -11 0 C-9.80375 -0.4125 -8.6075 -0.825 -7.375 -1.25 C-3.67850667 -2.07144296 -3.09270824 -1.809707 0 0 Z " fill="#F1F1F1" transform="translate(88,68)"/>
<path d="M0 0 C2.97 0 5.94 0 9 0 C9.495 1.98 9.495 1.98 10 4 C5.8776579 9.63386753 0.10139934 11.29105285 -6.53808594 12.4387207 C-9.16865763 12.77960102 -11.80110696 13.08273289 -14.4375 13.375 C-21.4142102 14.23094881 -26.76736499 15.37523467 -32.84765625 19.05859375 C-36.82850902 20.79976529 -40.86611221 19.8883461 -45 19 C-45.33 19.99 -45.66 20.98 -46 22 C-48.96175123 21.38722388 -50.38058783 20.74627478 -53 19 C-52.67 17.68 -52.34 16.36 -52 15 C-52.99 15.33 -53.98 15.66 -55 16 C-55.33 18.64 -55.66 21.28 -56 24 C-56.66 24 -57.32 24 -58 24 C-59.44231146 21.70927004 -59.99432597 20.2269613 -60.0625 17.5 C-58.67179473 14.22775231 -56.92858278 13.36861484 -53.88671875 11.69921875 C-52 11 -52 11 -48 11 C-47.773125 11.639375 -47.54625 12.27875 -47.3125 12.9375 C-46.14749104 15.27193661 -46.14749104 15.27193661 -43.375 15.75 C-42.59125 15.8325 -41.8075 15.915 -41 16 C-41.34786708 14.02463255 -41.34786708 14.02463255 -42 12 C-42.66 11.67 -43.32 11.34 -44 11 C-44 10.34 -44 9.68 -44 9 C-39.6974354 7.85122365 -35.39243084 6.71223754 -31.08496094 5.58203125 C-29.62169667 5.19665542 -28.15911702 4.80866984 -26.69726562 4.41796875 C-24.58901211 3.85500187 -22.47842854 3.30164271 -20.3671875 2.75 C-19.09987793 2.41484375 -17.83256836 2.0796875 -16.52685547 1.734375 C-13.22738737 1.04734745 -10.35595413 0.85546362 -7 1 C-7 2.32 -7 3.64 -7 5 C-6.01 5 -5.02 5 -4 5 C-4.495 3.02 -4.495 3.02 -5 1 C-4.01 1 -3.02 1 -2 1 C-1.505 2.485 -1.505 2.485 -1 4 C-0.67 2.68 -0.34 1.36 0 0 Z " fill="#E7E7E7" transform="translate(83,54)"/>
<path d="M0 0 C0.66 0 1.32 0 2 0 C3.08955258 1.72940064 4.09480268 3.51207969 5.0625 5.3125 C8.75391545 11.82811688 13.12806546 17.33944297 18 23 C18.82757813 24.06347656 18.82757813 24.06347656 19.671875 25.1484375 C27.98168566 35.55626966 40.19600039 41.44427137 52 47 C53.3354978 47.66232005 54.66993452 48.32683728 56 49 C54 51 54 51 51.375 51.5625 C47.62909456 50.93818243 46.95799539 50.28685081 44.3125 47.75 C40.38651677 44.00486821 36.65927027 42.55599517 31.5546875 40.89453125 C26.66479661 39.18232175 22.63773179 36.58132363 20 32 C19.3125 29.25 19.3125 29.25 19 27 C18.01 26.67 17.02 26.34 16 26 C13.77189866 23.06828771 11.71855146 20.07360042 9.671875 17.015625 C7.09498301 13.07852528 7.09498301 13.07852528 3 11 C1.15500602 9.12382302 -0.3683599 7.07262391 -2 5 C-1.34 4.01 -0.68 3.02 0 2 C0 1.34 0 0.68 0 0 Z " fill="#151515" transform="translate(96,126)"/>
<path d="M0 0 C2.46792254 2.19370892 3.59115172 4.00592629 4.640625 7.125 C4.90617187 7.91390625 5.17171875 8.7028125 5.4453125 9.515625 C5.71085937 10.33546875 5.97640625 11.1553125 6.25 12 C6.53101563 12.81984375 6.81203125 13.6396875 7.1015625 14.484375 C7.36195312 15.27328125 7.62234375 16.0621875 7.890625 16.875 C8.12813477 17.59429687 8.36564453 18.31359375 8.61035156 19.0546875 C9 21 9 21 8 24 C10.82540691 31.0002619 15.77356909 38.86575283 21.1875 44.125 C23 46 23 46 24.5 49.625 C26.14518393 53.32666384 26.54390521 53.48795853 30 55 C31.02611949 56.65071396 32.02308143 58.31970006 33 60 C36.39080468 63.87520535 39.99446246 66.37208868 44.42578125 68.88671875 C44.94527344 69.25410156 45.46476562 69.62148437 46 70 C46 70.66 46 71.32 46 72 C40.05775463 71.67489235 37.2351844 69.18732617 33.125 65.25 C32.19929199 64.37480713 32.19929199 64.37480713 31.25488281 63.48193359 C26.58807807 58.91209823 23.14309498 54.10494926 19.9375 48.3984375 C17.73353823 44.53261745 15.26759082 40.91490535 12.75 37.25 C4.64960454 25.26882982 4.64960454 25.26882982 3.5625 18.125 C2.79082445 13.83791362 0.88385963 10.27896478 -1.0390625 6.390625 C-1.35617188 5.60171875 -1.67328125 4.8128125 -2 4 C-1.67 3.34 -1.34 2.68 -1 2 C-0.67 2 -0.34 2 0 2 C0 1.34 0 0.68 0 0 Z " fill="#DBDBDB" transform="translate(33,100)"/>
<path d="M0 0 C2 1 2 1 4.75 2.9375 C8.29751272 5.18880615 11.72072571 7 16 7 C16 7.66 16 8.32 16 9 C17.27875 8.938125 18.5575 8.87625 19.875 8.8125 C25.27423811 8.78674847 29.94238735 10.22614003 35 12 C35 12.33 35 12.66 35 13 C31.7 12.67 28.4 12.34 25 12 C34.55362504 14.02112245 43.96548268 14.62612174 53.6875 15.125 C55.27542535 15.21160526 56.86331648 15.29884032 58.45117188 15.38671875 C62.30042579 15.59839912 66.15004047 15.80158465 70 16 C70 16.66 70 17.32 70 18 C43.46415605 18.63882587 19.17687835 16.77119313 -4 3 C-2.68 2.01 -1.36 1.02 0 0 Z " fill="#CECECE" transform="translate(88,176)"/>
<path d="M0 0 C6.15234375 0.5859375 6.15234375 0.5859375 8 1 C8.33 1.66 8.66 2.32 9 3 C8.01 3 7.02 3 6 3 C6.96850676 5.35208784 7.96461485 7.67764078 9 10 C9.391875 10.886875 9.78375 11.77375 10.1875 12.6875 C12.8108794 16.03457027 16.14409206 17.36055221 20 19 C19.01 19.99 18.02 20.98 17 22 C17.66 22.33 18.32 22.66 19 23 C18.67 23.99 18.34 24.98 18 26 C13.82530183 26.19417201 10.69501742 26.05278746 7 24 C5.23605791 21.39608549 5 20.19219704 5 17 C5.99 17 6.98 17 8 17 C8 17.66 8 18.32 8 19 C8.66 19.33 9.32 19.66 10 20 C10.33 19.01 10.66 18.02 11 17 C10.13375 16.52949219 9.2675 16.05898437 8.375 15.57421875 C7.26125 14.95160156 6.1475 14.32898438 5 13.6875 C3.88625 13.07261719 2.7725 12.45773438 1.625 11.82421875 C0.325625 10.92123047 0.325625 10.92123047 -1 10 C-1 9.01 -1 8.02 -1 7 C-1.20625 6.34 -1.4125 5.68 -1.625 5 C-2 3 -2 3 0 0 Z " fill="#E8E8E8" transform="translate(65,133)"/>
<path d="M0 0 C0.33 0 0.66 0 1 0 C1.03738281 1.20011719 1.07476562 2.40023437 1.11328125 3.63671875 C1.76120465 21.14307653 3.47181946 38.30321105 9 55 C7.515 55.495 7.515 55.495 6 56 C5.32923511 53.23010036 4.66323683 50.45920258 4 47.6875 C3.80921875 46.90181641 3.6184375 46.11613281 3.421875 45.30664062 C3.24140625 44.54931641 3.0609375 43.79199219 2.875 43.01171875 C2.70742187 42.31522217 2.53984375 41.61872559 2.3671875 40.90112305 C2 39 2 39 2 36 C0.515 36.495 0.515 36.495 -1 37 C-1 36.34 -1 35.68 -1 35 C-0.34 35 0.32 35 1 35 C0.7834375 33.76636719 0.7834375 33.76636719 0.5625 32.5078125 C-0.58687793 25.59558132 -1.28464823 19.00550915 -1 12 C-2.2065625 12.2784375 -2.2065625 12.2784375 -3.4375 12.5625 C-4.283125 12.706875 -5.12875 12.85125 -6 13 C-7 12 -7 12 -7.125 9.0625 C-7 6 -7 6 -6 4 C-5.34 4 -4.68 4 -4 4 C-3.67 5.32 -3.34 6.64 -3 8 C-2.01 8 -1.02 8 0 8 C0 5.36 0 2.72 0 0 Z " fill="#2C2C2C" transform="translate(89,71)"/>
<path d="M0 0 C1.60746056 0.42523816 3.21089836 0.86570126 4.8125 1.3125 C6.15248047 1.67794922 6.15248047 1.67794922 7.51953125 2.05078125 C10.07486087 3.02864755 11.33709197 3.85092617 13 6 C13 6.66 13 7.32 13 8 C13.99 9.485 13.99 9.485 15 11 C7.25 10.125 7.25 10.125 5 9 C1.95826106 8.83329727 1.95826106 8.83329727 -1 9 C-2.99616554 10.99616554 -2.40983427 14.81701963 -2.5625 17.5625 C-2.60568359 18.27341797 -2.64886719 18.98433594 -2.69335938 19.71679688 C-2.79971777 21.47761912 -2.90038846 23.2387832 -3 25 C-3.33 25 -3.66 25 -4 25 C-4.33 21.37 -4.66 17.74 -5 14 C-6.32 13.67 -7.64 13.34 -9 13 C-8 10 -8 10 -5.0625 8.5 C-4.051875 8.005 -3.04125 7.51 -2 7 C0.36980013 4.04622502 0.36980013 4.04622502 0 0 Z " fill="#0F0F0F" transform="translate(92,54)"/>
<path d="M0 0 C1.34191406 0.77923828 1.34191406 0.77923828 2.7109375 1.57421875 C9.70463557 5.61523764 16.72349292 9.48438422 24 13 C25.33424908 13.66483202 26.66787439 14.33092334 28 15 C26 17 26 17 23.375 17.5625 C19.62909456 16.93818243 18.95799539 16.28685081 16.3125 13.75 C12.37519152 9.97991311 8.59611235 8.47020567 3.41796875 6.921875 C0.91968873 5.96938052 -0.29197135 5.02012691 -2 3 C-1.34 2.67 -0.68 2.34 0 2 C0 1.34 0 0.68 0 0 Z " fill="#0B0B0B" transform="translate(124,160)"/>
<path d="M0 0 C3.465 1.485 3.465 1.485 7 3 C6.01 3.99 5.02 4.98 4 6 C4.66 6.33 5.32 6.66 6 7 C5.67 7.99 5.34 8.98 5 10 C0.82530183 10.19417201 -2.30498258 10.05278746 -6 8 C-7.76394209 5.39608549 -8 4.19219704 -8 1 C-7.01 1 -6.02 1 -5 1 C-5 1.66 -5 2.32 -5 3 C-4.34 3.33 -3.68 3.66 -3 4 C-2.67 3.34 -2.34 2.68 -2 2 C-1.34 1.34 -0.68 0.68 0 0 Z " fill="#3C3C3C" transform="translate(78,149)"/>
<path d="M0 0 C0.6875 2.3125 0.6875 2.3125 1 5 C-0.1875 6.875 -0.1875 6.875 -2 8 C-4.97397616 7.72963853 -5.85446026 7.14553974 -8 5 C-8.66 5.66 -9.32 6.32 -10 7 C-10.33 6.67 -10.66 6.34 -11 6 C-16.40652829 5.60553227 -21.67403774 6.09345323 -27 7 C-24.0592011 4.0592011 -20.44291287 3.78888431 -16.5 2.9375 C-2.91265082 -0.0633185 -2.91265082 -0.0633185 0 0 Z " fill="#EDEDED" transform="translate(68,48)"/>
<path d="M0 0 C4.94532499 2.51931651 7.33767255 4.03838975 10 9 C13.39080468 12.87520535 16.99446246 15.37208868 21.42578125 17.88671875 C22.20501953 18.43779297 22.20501953 18.43779297 23 19 C23 19.66 23 20.32 23 21 C16.84638197 20.73613889 14.00299464 17.83763297 9.8125 13.75 C8.88920898 12.88955078 8.88920898 12.88955078 7.94726562 12.01171875 C4.71468197 8.93673668 1.98015166 6.06111105 0 2 C0 1.34 0 0.68 0 0 Z " fill="#EEEEEE" transform="translate(56,151)"/>
<path d="M0 0 C3.32808207 2.69416167 4.42807425 6.10435792 6 10 C6.65288627 11.34013497 7.31225595 12.67741528 8 14 C2.67680777 13.13321472 -1.62539941 11.14587811 -6 8 C-7.5625 5.1875 -7.5625 5.1875 -8 3 C-3.545 3.99 -3.545 3.99 1 5 C0.67 3.35 0.34 1.7 0 0 Z " fill="#E6E6E6" transform="translate(61,117)"/>
<path d="M0 0 C2.97 0 5.94 0 9 0 C8.67 1.65 8.34 3.3 8 5 C8.639375 5.103125 9.27875 5.20625 9.9375 5.3125 C10.618125 5.539375 11.29875 5.76625 12 6 C12.33 6.99 12.66 7.98 13 9 C9.91190305 10.76462683 8.76687864 11 5 11 C5 10.34 5 9.68 5 9 C3.35 9 1.7 9 0 9 C0.99 8.01 1.98 7.02 3 6 C2.67 5.01 2.34 4.02 2 3 C1.34 2.67 0.68 2.34 0 2 C0 1.34 0 0.68 0 0 Z " fill="#F5F5F5" transform="translate(39,63)"/>
<path d="M0 0 C2.48238838 2.20266433 3.59432058 4.0229845 4.640625 7.16015625 C4.90617187 7.95357422 5.17171875 8.74699219 5.4453125 9.56445312 C5.71085937 10.38880859 5.97640625 11.21316406 6.25 12.0625 C6.53101563 12.89072266 6.81203125 13.71894531 7.1015625 14.57226562 C9.12941826 20.74116348 9.12941826 20.74116348 8 23 C6.0625 22.375 6.0625 22.375 4 21 C3.64179815 19.00430399 3.31622777 17.00277585 3 15 C1.73730599 12.08387605 0.36951716 9.23891316 -1.0390625 6.390625 C-1.35617188 5.60171875 -1.67328125 4.8128125 -2 4 C-1.67 3.34 -1.34 2.68 -1 2 C-0.67 2 -0.34 2 0 2 C0 1.34 0 0.68 0 0 Z " fill="#DDDDDD" transform="translate(33,100)"/>
<path d="M0 0 C0.33 0 0.66 0 1 0 C1 2.31 1 4.62 1 7 C1.598125 6.484375 2.19625 5.96875 2.8125 5.4375 C3.534375 4.963125 4.25625 4.48875 5 4 C8 5 8 5 10 8 C10 8.99 10 9.98 10 11 C8.04081032 10.94008594 6.08248471 10.85132862 4.125 10.75 C3.03445312 10.70359375 1.94390625 10.6571875 0.8203125 10.609375 C-2 10 -2 10 -3.3828125 7.953125 C-3.58648437 7.30859375 -3.79015625 6.6640625 -4 6 C-3.01 6 -2.02 6 -1 6 C-1.020625 5.195625 -1.04125 4.39125 -1.0625 3.5625 C-1 1 -1 1 0 0 Z " fill="#252525" transform="translate(56,104)"/>
<path d="M0 0 C1.36995117 0.07831055 1.36995117 0.07831055 2.76757812 0.15820312 C4.99137081 0.28627495 7.21451936 0.42113959 9.4375 0.5625 C9.4375 1.2225 9.4375 1.8825 9.4375 2.5625 C5.35422643 2.6205772 1.27105917 2.65612249 -2.8125 2.6875 C-4.55080078 2.71263672 -4.55080078 2.71263672 -6.32421875 2.73828125 C-7.43925781 2.74472656 -8.55429688 2.75117188 -9.703125 2.7578125 C-10.72954102 2.76828613 -11.75595703 2.77875977 -12.81347656 2.78955078 C-15.58234288 2.56086111 -17.20668792 1.9868299 -19.5625 0.5625 C-12.91454039 -0.35049547 -6.68781102 -0.42688155 0 0 Z " fill="#E6E6E6" transform="translate(148.5625,191.4375)"/>
<path d="M0 0 C2.97 0.33 5.94 0.66 9 1 C8.34 2.98 7.68 4.96 7 7 C5.35 7 3.7 7 2 7 C2 6.34 2 5.68 2 5 C0.68 5 -0.64 5 -2 5 C-1.34 3.35 -0.68 1.7 0 0 Z " fill="#2A2A2A" transform="translate(131,177)"/>
<path d="M0 0 C0.66 0 1.32 0 2 0 C3.03513247 2.0762657 4.05266211 4.16131479 5.0625 6.25 C5.63097656 7.41015625 6.19945312 8.5703125 6.78515625 9.765625 C7.96485975 12.90644333 8.30230734 13.99353048 7 17 C6.34 17 5.68 17 5 17 C4.15838146 14.91999989 3.32699237 12.83585854 2.5 10.75 C2.0359375 9.58984375 1.571875 8.4296875 1.09375 7.234375 C0 4 0 4 0 0 Z " fill="#0A0A0A" transform="translate(30,104)"/>
<path d="M0 0 C0.66 0 1.32 0 2 0 C4.31 4.29 6.62 8.58 9 13 C2.42404457 10.80801486 1.7738507 10.10579801 -2 5 C-1.34 4.01 -0.68 3.02 0 2 C0 1.34 0 0.68 0 0 Z " fill="#0C0C0C" transform="translate(96,126)"/>
<path d="M0 0 C0.556875 0.185625 1.11375 0.37125 1.6875 0.5625 C4.02283746 1.17591323 4.02283746 1.17591323 6.375 0.375 C9.98900227 -0.14128604 11.91315308 1.20532156 15 3 C15 3.33 15 3.66 15 4 C6.05245573 5.44203141 6.05245573 5.44203141 1.875 3.6875 C1.25625 3.130625 0.6375 2.57375 0 2 C0 1.34 0 0.68 0 0 Z " fill="#888888" transform="translate(84,154)"/>
<path d="M0 0 C4.82360189 -0.19294408 8.49646738 0.24252386 13 2 C12.67 2.99 12.34 3.98 12 5 C7.82851735 5.19402245 4.71055417 5.01430083 1 3 C0.67 2.01 0.34 1.02 0 0 Z " fill="#E7E7E7" transform="translate(71,154)"/>
<path d="M0 0 C2.08304538 -0.05418326 4.16649768 -0.09287551 6.25 -0.125 C7.99023438 -0.15980469 7.99023438 -0.15980469 9.765625 -0.1953125 C12.82786046 -0.0103949 14.44202751 0.39176977 17 2 C16 3 16 3 14.1796875 3.1328125 C9.34595929 3.11642698 4.76626527 2.8112792 0 2 C0 1.34 0 0.68 0 0 Z " fill="#DFDFDF" transform="translate(167,181)"/>
<path d="M0 0 C5.53846154 0.61538462 5.53846154 0.61538462 7.875 2.5625 C8.431875 3.2740625 8.431875 3.2740625 9 4 C8.67 4.99 8.34 5.98 8 7 C5.25851328 6.62952882 3.41406801 6.31412056 1.1875 4.625 C0 3 0 3 0 0 Z " fill="#E9E9E9" transform="translate(53,41)"/>
<path d="M0 0 C4.8 3.44615385 4.8 3.44615385 5.8125 6.25 C5.874375 6.8275 5.93625 7.405 6 8 C4.35 8.66 2.7 9.32 1 10 C-0.0625 8.1875 -0.0625 8.1875 -1 6 C-0.67 5.01 -0.34 4.02 0 3 C0 2.01 0 1.02 0 0 Z " fill="#101010" transform="translate(66,102)"/>
<path d="M0 0 C-0.99 1.485 -0.99 1.485 -2 3 C-2.33 2.67 -2.66 2.34 -3 2 C-8.40652829 1.60553227 -13.67403774 2.09345323 -19 3 C-16.37796595 0.37796595 -14.2166486 0.10553877 -10.625 -0.75 C-9.48289062 -1.03359375 -8.34078125 -1.3171875 -7.1640625 -1.609375 C-3.87626809 -2.01527554 -2.68803476 -1.82733397 0 0 Z " fill="#CDCDCD" transform="translate(60,52)"/>
<path d="M0 0 C4.77631579 2.44939271 4.77631579 2.44939271 5.8125 5 C6 7 6 7 6 10 C4.35 9.67 2.7 9.34 1 9 C1.20625 8.38125 1.4125 7.7625 1.625 7.125 C1.74875 6.42375 1.8725 5.7225 2 5 C1.34 4.34 0.68 3.68 0 3 C0 2.01 0 1.02 0 0 Z " fill="#070707" transform="translate(56,112)"/>
<path d="M0 0 C0 0.66 0 1.32 0 2 C1.32 2.66 2.64 3.32 4 4 C1 6 1 6 -1.6875 5.625 C-2.450625 5.41875 -3.21375 5.2125 -4 5 C-4 4.34 -4 3.68 -4 3 C-4.66 2.67 -5.32 2.34 -6 2 C-3 0 -3 0 0 0 Z " fill="#656565" transform="translate(151,182)"/>
<path d="M0 0 C0 5.28 0 10.56 0 16 C-0.33 16 -0.66 16 -1 16 C-1.33 12.37 -1.66 8.74 -2 5 C-3.32 4.67 -4.64 4.34 -6 4 C-5.67 3.01 -5.34 2.02 -5 1 C-3 0 -3 0 0 0 Z " fill="#050505" transform="translate(89,63)"/>
<path d="M0 0 C-2 3 -2 3 -3.9453125 3.51171875 C-4.66460937 3.56972656 -5.38390625 3.62773438 -6.125 3.6875 C-7.40375 3.790625 -8.6825 3.89375 -10 4 C-10 3.34 -10 2.68 -10 2 C-10.66 1.67 -11.32 1.34 -12 1 C-10.56496445 0.63597631 -9.12683494 0.28413409 -7.6875 -0.0625 C-6.88699219 -0.25972656 -6.08648437 -0.45695312 -5.26171875 -0.66015625 C-3 -1 -3 -1 0 0 Z " fill="#202020" transform="translate(84,65)"/>
<path d="M0 0 C2.47266124 2.26237627 4.063866 4.57453333 5.6875 7.5 C6.12449219 8.2734375 6.56148437 9.046875 7.01171875 9.84375 C8 12 8 12 8 15 C3.74016783 11.50085215 1.84327045 7.07879837 0 2 C0 1.34 0 0.68 0 0 Z " fill="#D5D5D5" transform="translate(38,121)"/>
<path d="M0 0 C2.0343459 1.41519715 2.90410393 2.54982123 3.421875 4.98046875 C3.66273952 6.98176954 3.83532741 8.9909944 4 11 C3.01 10.67 2.02 10.34 1 10 C-0.60725635 6.78548731 -0.05748185 3.56387464 0 0 Z " fill="#101010" transform="translate(79,100)"/>
<path d="M0 0 C2.64 0 5.28 0 8 0 C8 1.32 8 2.64 8 4 C7.01 4.495 7.01 4.495 6 5 C6 3.68 6 2.36 6 1 C5.01 1.495 5.01 1.495 4 2 C4 2.99 4 3.98 4 5 C3.01 5 2.02 5 1 5 C0.67 3.35 0.34 1.7 0 0 Z " fill="#6E6E6E" transform="translate(75,54)"/>
<path d="M0 0 C0.66 0.33 1.32 0.66 2 1 C2 1.66 2 2.32 2 3 C3.62626404 4.38232443 5.2925002 5.71937515 7 7 C2.6109185 6.48964169 -0.33708062 5.47785723 -4 3 C-2.68 2.01 -1.36 1.02 0 0 Z " fill="#8C8C8C" transform="translate(88,176)"/>
<path d="M0 0 C0.66 0.66 1.32 1.32 2 2 C0.41727399 3.58272601 -1.38034003 3.34735747 -3.5625 3.5625 C-4.80193359 3.68818359 -4.80193359 3.68818359 -6.06640625 3.81640625 C-7.02353516 3.90728516 -7.02353516 3.90728516 -8 4 C-7.67 2.68 -7.34 1.36 -7 0 C-3.98968256 -0.93423645 -3.13349732 -1.04449911 0 0 Z " fill="#8D8D8D" transform="translate(65,58)"/>
<path d="M0 0 C2.475 0.495 2.475 0.495 5 1 C5.33 2.32 5.66 3.64 6 5 C4.125 5.625 4.125 5.625 2 6 C1.34 5.34 0.68 4.68 0 4 C0 2.68 0 1.36 0 0 Z " fill="#373737" transform="translate(119,158)"/>
<path d="M0 0 C0 2.97 0 5.94 0 9 C-0.66 9 -1.32 9 -2 9 C-3.4606285 6.35261084 -4 5.10551666 -4 2 C-1 0 -1 0 0 0 Z " fill="#C5C5C5" transform="translate(27,69)"/>
<path d="M0 0 C1.67542976 0.28604898 3.34385343 0.61781233 5 1 C5 1.99 5 2.98 5 4 C2.69 4.33 0.38 4.66 -2 5 C-1.125 1.125 -1.125 1.125 0 0 Z " fill="#DDDDDD" transform="translate(43,23)"/>
<path d="M0 0 C2.97 0.495 2.97 0.495 6 1 C5.67 1.66 5.34 2.32 5 3 C5.66 3.33 6.32 3.66 7 4 C7 4.66 7 5.32 7 6 C4.625 5.8125 4.625 5.8125 2 5 C0.6875 2.4375 0.6875 2.4375 0 0 Z " fill="#CFCFCF" transform="translate(100,163)"/>
<path d="M0 0 C2.92879371 0.62759865 5.36095629 1.58622659 8 3 C8 3.66 8 4.32 8 5 C8.99 5.33 9.98 5.66 11 6 C11 6.66 11 7.32 11 8 C9.02 7.34 7.04 6.68 5 6 C5 5.34 5 4.68 5 4 C3.37373596 2.61767557 1.7074998 1.28062485 0 0 Z " fill="#C7C7C7" transform="translate(88,178)"/>
<path d="M0 0 C2.18975773 3.28463659 2.99806563 6.20696275 4 10 C1.525 9.01 1.525 9.01 -1 8 C-1.125 2.25 -1.125 2.25 0 0 Z " fill="#AEAEAE" transform="translate(38,113)"/>
<path d="M0 0 C5.53846154 0.61538462 5.53846154 0.61538462 7.875 2.5625 C8.431875 3.2740625 8.431875 3.2740625 9 4 C7.68 4.33 6.36 4.66 5 5 C4.67 4.34 4.34 3.68 4 3 C2.68 3.33 1.36 3.66 0 4 C0 2.68 0 1.36 0 0 Z " fill="#020202" transform="translate(139,179)"/>
<path d="M0 0 C2.45484649 2.13464912 3.68134222 3.70720291 4 7 C3.34 7.66 2.68 8.32 2 9 C0.68 7.35 -0.64 5.7 -2 4 C-1.67 3.34 -1.34 2.68 -1 2 C-0.67 2 -0.34 2 0 2 C0 1.34 0 0.68 0 0 Z " fill="#C8C8C8" transform="translate(33,100)"/>
<path d="M0 0 C1.98 0 3.96 0 6 0 C6 1.32 6 2.64 6 4 C4.35 4 2.7 4 1 4 C0.67 2.68 0.34 1.36 0 0 Z " fill="#CBCBCB" transform="translate(43,80)"/>
<path d="M0 0 C0.33 0 0.66 0 1 0 C1.05391993 1.79133978 1.09275571 3.58313899 1.125 5.375 C1.14820312 6.37273437 1.17140625 7.37046875 1.1953125 8.3984375 C1 11 1 11 -1 13 C-1.66 13 -2.32 13 -3 13 C-3 11.68 -3 10.36 -3 9 C-2.34 8.67 -1.68 8.34 -1 8 C-0.53476937 6.10466658 -0.53476937 6.10466658 -0.375 3.9375 C-0.25125 2.638125 -0.1275 1.33875 0 0 Z " fill="#C7C7C7" transform="translate(87,68)"/>
<path d="M0 0 C0.66 0.33 1.32 0.66 2 1 C1.67 2.32 1.34 3.64 1 5 C-0.65 5 -2.3 5 -4 5 C-2.25 1.125 -2.25 1.125 0 0 Z " fill="#ECECEC" transform="translate(137,179)"/>
<path d="M0 0 C1.32 0.66 2.64 1.32 4 2 C3.67 3.32 3.34 4.64 3 6 C1 6 1 6 -0.625 4.5 C-1.07875 4.005 -1.5325 3.51 -2 3 C-1 1 -1 1 0 0 Z " fill="#292929" transform="translate(53,95)"/>
<path d="M0 0 C0 0.33 0 0.66 0 1 C-0.969375 1.268125 -1.93875 1.53625 -2.9375 1.8125 C-3.948125 2.204375 -4.95875 2.59625 -6 3 C-6.33 3.99 -6.66 4.98 -7 6 C-6.34 6.33 -5.68 6.66 -5 7 C-5.99 7 -6.98 7 -8 7 C-8.33 5.35 -8.66 3.7 -9 2 C-5.5647952 -0.29013653 -4.014669 -0.17842973 0 0 Z " fill="#373737" transform="translate(48,22)"/>
<path d="M0 0 C0.66 0 1.32 0 2 0 C2 2.64 2 5.28 2 8 C1.01 8 0.02 8 -1 8 C-1.125 2.25 -1.125 2.25 0 0 Z " fill="#0C0C0C" transform="translate(83,75)"/>
<path d="M0 0 C3.0831351 1.19899698 6.06279492 2.47700477 9 4 C7.3125 4.6875 7.3125 4.6875 5 5 C2.25 3.6875 2.25 3.6875 0 2 C0 1.34 0 0.68 0 0 Z " fill="#D1D1D1" transform="translate(84,154)"/>
<path d="M0 0 C3.37503669 1.1858237 5.64722731 2.27573689 8 5 C5.125 4.75 5.125 4.75 2 4 C0.625 1.9375 0.625 1.9375 0 0 Z " fill="#272727" transform="translate(56,90)"/>
<path d="M0 0 C1.37562854 1.28965176 2.70766393 2.62689293 4 4 C4 4.66 4 5.32 4 6 C1.11562221 4.70700306 -0.87219421 3.34058637 -3 1 C-2.01 0.67 -1.02 0.34 0 0 Z " fill="#9F9F9F" transform="translate(105,59)"/>
<path d="M0 0 C1.32 0 2.64 0 4 0 C4 0.66 4 1.32 4 2 C3.34 2 2.68 2 2 2 C2 2.66 2 3.32 2 4 C0.35 3.67 -1.3 3.34 -3 3 C-2.01 2.67 -1.02 2.34 0 2 C0 1.34 0 0.68 0 0 Z " fill="#5C5C5C" transform="translate(110,173)"/>
<path d="M0 0 C0.99 0 1.98 0 3 0 C3 0.66 3 1.32 3 2 C3.66 2.33 4.32 2.66 5 3 C5.33 2.34 5.66 1.68 6 1 C6.66 1.66 7.32 2.32 8 3 C5.69 3.33 3.38 3.66 1 4 C0.67 2.68 0.34 1.36 0 0 Z " fill="#777777" transform="translate(70,150)"/>
<path d="M0 0 C0.33 0 0.66 0 1 0 C1 2.64 1 5.28 1 8 C0.01 7.34 -0.98 6.68 -2 6 C-2 4.68 -2 3.36 -2 2 C-1.34 2 -0.68 2 0 2 C0 1.34 0 0.68 0 0 Z " fill="#040404" transform="translate(52,101)"/>
</svg>
