<?xml version="1.0" encoding="UTF-8"?>
<svg version="1.1" xmlns="http://www.w3.org/2000/svg" width="217" height="232">
<path d="M0 0 C71.61 0 143.22 0 217 0 C217 76.56 217 153.12 217 232 C145.39 232 73.78 232 0 232 C0 155.44 0 78.88 0 0 Z " fill="#FEFEFE" transform="translate(0,0)"/>
<path d="M0 0 C30.69 0 61.38 0 93 0 C93 9.65297647 93 9.65297647 92 14 C91.81554848 15.92969883 91.66288886 17.86259365 91.53515625 19.796875 C91.41817383 21.48490234 91.41817383 21.48490234 91.29882812 23.20703125 C91.14440621 25.52208378 90.99072824 27.83718609 90.83789062 30.15234375 C90.39560465 36.51694684 89.81393934 42.83745097 89.03515625 49.16796875 C87.87609776 58.6121815 87.11318797 68.07753404 86.375 77.5625 C86.23987814 79.26760151 86.10446275 80.97267979 85.96875 82.67773438 C85.64246798 86.7848978 85.3200933 90.89234982 85 95 C80.14709197 96.43620104 75.29075318 97.85991084 70.4309082 99.27246094 C68.78018189 99.75411808 67.13042139 100.23909874 65.48168945 100.72753906 C63.10357468 101.43142082 60.72217511 102.12304364 58.33984375 102.8125 C57.24566383 103.14060669 57.24566383 103.14060669 56.12937927 103.4753418 C48.76689227 105.58049791 42.55967484 105.17812001 35.16796875 103.20703125 C34.45014725 103.01912521 33.73232574 102.83121918 32.99275208 102.63761902 C31.48812623 102.23964157 29.98476751 101.83684496 28.48266602 101.42944336 C26.18168241 100.81093622 23.87392842 100.22455574 21.56445312 99.63867188 C20.0984382 99.24673203 18.63292303 98.85291703 17.16796875 98.45703125 C16.47841599 98.28597366 15.78886322 98.11491608 15.07841492 97.93867493 C11.84707006 97.02789126 10.29965608 96.51915532 8.5871582 93.55224609 C5.91680653 81.94482138 5.62054874 69.63096255 4.75 57.78588867 C4.2636201 51.21833514 3.68996509 44.67427802 3 38.125 C1.74707219 25.43910594 0.9082301 12.71522136 0 0 Z " fill="#E7A52D" transform="translate(62,76)"/>
<path d="M0 0 C15.84 0 31.68 0 48 0 C50 13 50 13 50 19 C46.04 19 42.08 19 38 19 C38 16.69 38 14.38 38 12 C28.76 12 19.52 12 10 12 C10 15.96 10 19.92 10 24 C23.53 24 37.06 24 51 24 C51 29.17974443 50.90813573 33.82677843 50.34375 38.90625 C50.20839844 40.14375 50.07304687 41.38125 49.93359375 42.65625 C49.79050781 43.9246875 49.64742187 45.193125 49.5 46.5 C49.35691406 47.799375 49.21382812 49.09875 49.06640625 50.4375 C48.71479431 53.62544824 48.35921736 56.81290131 48 60 C44.8606739 61.02124293 41.71271763 62.01291699 38.5625 63 C37.24475586 63.42925781 37.24475586 63.42925781 35.90039062 63.8671875 C25.76669052 67.00826059 18.44710712 66.26064971 8.4375 63 C7.06754883 62.57074219 7.06754883 62.57074219 5.66992188 62.1328125 C3.44300675 61.43325801 1.22096155 60.71823203 -1 60 C-1.33 53.73 -1.66 47.46 -2 41 C2.29 41 6.58 41 11 41 C11 44.3 11 47.6 11 51 C12.010625 51.144375 13.02125 51.28875 14.0625 51.4375 C16.55117051 51.79302436 19.03320243 52.20295048 21.5 52.6875 C25.49621475 53.04430489 28.20734862 52.21651082 32 51 C33.32 51 34.64 51 36 51 C36.33 46.05 36.66 41.1 37 36 C23.8 36 10.6 36 -3 36 C-2 24 -1 12 0 0 Z " fill="#F5F3EF" transform="translate(85,95)"/>
<path d="M0 0 C12.54 0 25.08 0 38 0 C38 9.64837502 37.96146638 18.72937089 36.94140625 28.2265625 C36.77849342 29.84079605 36.77849342 29.84079605 36.61228943 31.48764038 C36.26986177 34.86757849 35.91673619 38.24628113 35.5625 41.625 C35.10226581 46.09602941 34.64634349 50.56749134 34.19140625 55.0390625 C34.08325592 56.09498596 33.97510559 57.15090942 33.86367798 58.23883057 C33.09546485 65.81860346 32.45089122 73.39388428 32 81 C28.24898024 82.14817009 24.49531242 83.28718484 20.73901367 84.41796875 C18.83692935 84.9926195 16.9370007 85.57438985 15.03710938 86.15625 C13.83505859 86.5171875 12.63300781 86.878125 11.39453125 87.25 C9.73707886 87.75273437 9.73707886 87.75273437 8.04614258 88.265625 C5 89 5 89 0 89 C-0.33 85.04 -0.66 81.08 -1 77 C1.45757324 76.37188575 3.91599787 75.7474763 6.375 75.125 C7.39400391 74.86396484 7.39400391 74.86396484 8.43359375 74.59765625 C13.92161936 73.21282736 19.44254369 72.07001556 25 71 C25.01981934 70.4423999 25.03963867 69.8847998 25.06005859 69.31030273 C25.15765538 66.68570395 25.266339 64.06166318 25.375 61.4375 C25.4059375 60.56158203 25.436875 59.68566406 25.46875 58.78320312 C25.8167511 50.69217748 26.91534741 43.13489442 28 35 C14.47 35 0.94 35 -13 35 C-13 31.04 -13 27.08 -13 23 C-3.76 23 5.48 23 15 23 C15 25.31 15 27.62 15 30 C18.96 30 22.92 30 27 30 C26.855625 29.04738281 26.71125 28.09476563 26.5625 27.11328125 C26.376875 25.85902344 26.19125 24.60476562 26 23.3125 C25.814375 22.07113281 25.62875 20.82976562 25.4375 19.55078125 C25 16 25 16 25 11 C16.75 11 8.5 11 0 11 C0 7.37 0 3.74 0 0 Z " fill="#F1BE24" transform="translate(108,84)"/>
<path d="M0 0 C4.29 0 8.58 0 13 0 C13 3.3 13 6.6 13 10 C18.32212148 10.79265639 23.6496441 11.42978066 29 12 C28.27876953 12.58201172 28.27876953 12.58201172 27.54296875 13.17578125 C25.54250502 15.54088647 25.51123932 17.12691453 25.3125 20.1875 C25.24675781 21.08855469 25.18101563 21.98960937 25.11328125 22.91796875 C25.07589844 23.60503906 25.03851563 24.29210937 25 25 C19.47384337 24.36151975 14.37484287 23.06211576 9.0625 21.4375 C6.401875 20.633125 3.74125 19.82875 1 19 C0.67 12.73 0.34 6.46 0 0 Z " fill="#ECEAE6" transform="translate(83,136)"/>
<path d="M0 0 C8.25 0 16.5 0 25 0 C27 12 27 12 27 18 C23.04 18 19.08 18 15 18 C15 15.69 15 13.38 15 11 C10.05 11 5.1 11 0 11 C0 7.37 0 3.74 0 0 Z " fill="#FEFDFC" transform="translate(108,96)"/>
<path d="M0 0 C4.62 0 9.24 0 14 0 C14.09038099 5.15171623 13.84681133 9.91913204 13 15 C11.23225581 15.53122363 9.46065917 16.04964073 7.6875 16.5625 C6.70136719 16.85253906 5.71523437 17.14257812 4.69921875 17.44140625 C2 18 2 18 -1 17 C-0.67 11.39 -0.34 5.78 0 0 Z " fill="#F1BE22" transform="translate(108,131)"/>
<path d="M0 0 C4.95 0 9.9 0 15 0 C15 1.98 15 3.96 15 6 C13.68 6.33 12.36 6.66 11 7 C11.66 7.53625 12.32 8.0725 13 8.625 C15 11 15 11 15 17 C10.38 17 5.76 17 1 17 C1 15.35 1 13.7 1 12 C2.65 12 4.3 12 6 12 C6 11.34 6 10.68 6 10 C5.071875 9.566875 5.071875 9.566875 4.125 9.125 C2 8 2 8 0 6 C0 4.02 0 2.04 0 0 Z " fill="#080808" transform="translate(111,51)"/>
<path d="M0 0 C1.65 0 3.3 0 5 0 C5 5.61 5 11.22 5 17 C0.38 17 -4.24 17 -9 17 C-9 15.02 -9 13.04 -9 11 C-6.03 11 -3.06 11 0 11 C0 7.37 0 3.74 0 0 Z " fill="#070707" transform="translate(100,51)"/>
<path d="M0 0 C3.96 0 7.92 0 12 0 C12 3.3 12 6.6 12 10 C8.04 10 4.08 10 0 10 C0 6.7 0 3.4 0 0 Z " fill="#E6A328" transform="translate(96,108)"/>
</svg>
