<?xml version="1.0" encoding="UTF-8"?>
<svg version="1.1" xmlns="http://www.w3.org/2000/svg" width="2048" height="2048">
<path d="M0 0 C675.84 0 1351.68 0 2048 0 C2048 675.84 2048 1351.68 2048 2048 C1372.16 2048 696.32 2048 0 2048 C0 1372.16 0 696.32 0 0 Z " fill="#D00000" transform="translate(0,0)"/>
<path d="M0 0 C1.01916 -0.01142029 2.03832001 -0.02284058 3.08836365 -0.03460693 C4.772267 -0.03796051 4.772267 -0.03796051 6.4901886 -0.04138184 C7.66917221 -0.05131165 8.84815582 -0.06124146 10.06286621 -0.07147217 C13.30280724 -0.09571755 16.54260381 -0.11061396 19.78261924 -0.11949348 C21.80788841 -0.12535512 23.83313494 -0.13356494 25.85839272 -0.14250183 C32.1978211 -0.1698616 38.53719769 -0.18918757 44.87668103 -0.19690561 C52.18889239 -0.20585701 59.50035412 -0.24090065 66.81233758 -0.2989068 C72.46680844 -0.34220183 78.12106894 -0.36231753 83.77570373 -0.36498785 C87.15146903 -0.36708054 90.52653019 -0.37881776 93.90212059 -0.41462708 C97.67293808 -0.44875224 101.44193544 -0.44498798 105.21284485 -0.43200684 C106.32532593 -0.4504364 107.43780701 -0.46886597 108.58399963 -0.487854 C114.83475241 -0.42047227 118.40906821 0.26369486 122.87203693 4.78936005 C123.51700516 5.5276643 123.51700516 5.5276643 124.17500305 6.28088379 C125.1495343 7.31535645 125.1495343 7.31535645 126.14375305 8.37072754 C126.9017218 9.28531738 126.9017218 9.28531738 127.67500305 10.21838379 C129.91634678 12.85496447 132.20327087 15.35880694 134.67500305 17.78088379 C137.76205167 20.81280654 140.58497832 24.01369928 143.4054718 27.29260254 C145.72170689 29.89517133 148.18630297 32.32151827 150.6945343 34.73791504 C154.42510331 38.62597509 154.46204199 41.77654486 154.43671608 46.86525249 C154.44071214 47.64874267 154.4447082 48.43223285 154.44882536 49.23946515 C154.45986676 51.88669081 154.45658895 54.53370978 154.45347595 57.18095398 C154.45847501 59.08920334 154.46434965 60.99745057 154.47102869 62.90569478 C154.48688991 68.16645459 154.49026272 73.42716108 154.49167728 78.68794191 C154.49536069 84.35462438 154.5105108 90.02127723 154.52429199 95.6879425 C154.54660207 105.51148864 154.56159278 115.3350243 154.57165909 125.15859032 C154.58622391 139.36194113 154.6117545 153.56525544 154.63999037 167.76858488 C154.68549839 190.81068009 154.72211367 213.85277876 154.75312805 236.89489746 C154.78328272 259.28260215 154.81761693 281.67029404 154.85762024 304.0579834 C154.85885124 304.74784265 154.86008225 305.4377019 154.86135055 306.14846598 C154.87371721 313.07619803 154.88616895 320.00392992 154.89868303 326.9316617 C155.00365508 385.04805064 155.09426413 443.16445629 155.17500305 501.28088379 C159.56671116 497.59544078 163.77106953 493.81015295 167.82905579 489.7538147 C168.61466086 488.97054961 168.61466086 488.97054961 169.41613674 488.17146099 C171.14932529 486.44222252 172.87896326 484.70947827 174.6085968 482.97668457 C175.85913287 481.72750522 177.10988122 480.47853833 178.36082458 479.22976685 C181.74327454 475.85185948 185.1225731 472.47081606 188.50116348 469.08904886 C192.0464598 465.54121196 195.59420543 461.99582564 199.14155579 458.45004272 C205.09818955 452.49522594 211.05271723 446.53830929 217.00605774 440.5802002 C223.87572552 433.70509321 230.74898481 426.83359259 237.62412548 419.96395886 C243.53955041 414.05308148 249.45301234 408.14024556 255.36485767 402.225788 C258.89013036 398.69896125 262.41606336 395.17280177 265.94377136 391.6484108 C269.26209077 388.3329939 272.57792792 385.01511373 275.89191818 381.69536972 C277.10398395 380.48198898 278.31688795 379.26944486 279.53071976 378.05783081 C281.19646796 376.39484415 282.85905978 374.72876077 284.52095032 373.06192017 C285.44932205 372.13317141 286.37769379 371.20442265 287.334198 370.24752998 C289.44921003 368.08444108 291.43743926 365.83988192 293.40925598 363.54578972 C297.73981541 358.55686858 302.4022384 353.92161233 307.08100891 349.26135254 C308.07222897 348.270413 309.06322658 347.2792509 310.05402279 346.28788757 C312.75883346 343.5827832 315.4667331 340.88079006 318.17516661 338.17931366 C321.10274188 335.25814154 324.02738717 332.33403853 326.95237732 329.41027832 C332.01607519 324.34946087 337.08154371 319.29042141 342.1481781 314.23254395 C349.48171661 306.91158675 356.81199101 299.58736814 364.14138925 292.26226616 C376.04504356 280.3656722 387.95056414 268.47094792 399.85762024 256.57775879 C400.5695731 255.86663374 401.28152596 255.15550869 402.01505315 254.4228344 C407.79137452 248.65325737 413.5677864 242.88377097 419.34420204 237.11428833 C424.39363897 232.07090419 429.44303975 227.02748386 434.49238586 221.98400879 C435.20346792 221.27375486 435.91454997 220.56350094 436.64717996 219.83172417 C448.51095534 207.98164301 460.37276087 196.12959193 472.23316669 184.27613831 C479.54281662 176.97096398 486.85423793 169.66757119 494.16796803 162.36648178 C499.17957158 157.36331563 504.18939616 152.35837283 509.19783568 147.35203934 C512.08549592 144.46572147 514.97397409 141.58023468 517.86467361 138.69696045 C520.51426416 136.05415004 523.16150441 133.40900828 525.80694973 130.76204872 C527.21045542 129.35894025 528.61643522 127.95830791 530.02252102 126.55778503 C534.3991182 122.17407489 538.61770896 117.72558236 542.65522325 113.0277518 C544.7351147 110.63707925 546.93965202 108.39030391 549.17935181 106.14955139 C549.63311241 105.6942308 550.08687301 105.23891021 550.55438393 104.76979202 C552.04578167 103.27446785 553.54065276 101.78266966 555.03559875 100.29089355 C556.11732263 99.20781203 557.19883422 98.12451847 558.28015137 97.04103088 C561.1948093 94.12184514 564.11258367 91.20579366 567.03109765 88.29046369 C570.09059433 85.23351087 573.14763682 82.17410531 576.20507812 79.11509705 C581.33168506 73.98667598 586.46038576 68.8603559 591.59028625 63.73522949 C597.52430589 57.80666846 603.45469104 51.87449009 609.38323528 45.94045407 C614.47961631 40.83954111 619.57793577 35.74057176 624.67789334 30.64323467 C627.72161587 27.60107223 630.76465601 24.55823547 633.80594826 21.51364326 C636.65927455 18.65743654 639.51502022 15.80367145 642.37268257 12.95180321 C643.42249645 11.90331525 644.47145349 10.8539686 645.51950455 9.80371857 C646.94588806 8.37461747 648.37563553 6.94887624 649.80557251 5.52333069 C650.60581502 4.7234652 651.40605753 3.92359972 652.23054981 3.09949589 C655.68240149 -0.12895882 658.08938379 0.14991002 662.73529053 0.13371277 C663.41683592 0.13003608 664.09838132 0.12635939 664.80057961 0.12257129 C667.09523544 0.11151607 669.38984603 0.10768756 671.68452454 0.10388184 C673.32525273 0.09761872 674.96597951 0.09097206 676.60670471 0.08396912 C681.07151641 0.0665487 685.53631739 0.05600516 690.00115466 0.04776359 C692.78821738 0.04261709 695.57527675 0.03654129 698.36233711 0.03025246 C707.07563486 0.01120001 715.78892411 -0.00303268 724.50223869 -0.01135951 C734.57344792 -0.0211421 744.64443796 -0.04748792 754.71556991 -0.08786041 C762.49224013 -0.11796986 770.26884732 -0.13282334 778.04557472 -0.13614053 C782.6942234 -0.13849637 787.34263793 -0.14752612 791.99122429 -0.1726017 C796.36200618 -0.19579813 800.73239833 -0.20014994 805.10322571 -0.18984032 C806.70970006 -0.18934283 808.31619306 -0.19572566 809.92260933 -0.20939636 C812.11145682 -0.22698546 814.29888566 -0.22007541 816.48773193 -0.2068634 C817.71388434 -0.20925176 818.94003675 -0.21164011 820.2033453 -0.21410084 C823.17500305 0.28088379 823.17500305 0.28088379 824.99354649 2.10003376 C826.68298316 5.21856399 828.1026528 8.42585778 829.4679718 11.69494629 C829.77547363 12.41792908 830.08297546 13.14091187 830.39979553 13.88580322 C831.39291278 16.22352548 832.37829512 18.56439799 833.36250305 20.90588379 C834.70903249 24.09962266 836.05811897 27.29226822 837.40937805 30.48400879 C837.73764084 31.26041718 838.06590363 32.03682556 838.40411377 32.83676147 C840.51003509 37.79207742 842.74403084 42.66559392 845.08808899 47.51330566 C848.52195376 54.69528785 851.74069245 62.32413043 849.17500305 70.28088379 C843.83683075 77.41608847 837.06218043 83.53574019 830.76704407 89.8182373 C829.62609061 90.96054829 828.48534945 92.10307135 827.34480286 93.24578857 C824.26652663 96.32859729 821.18512739 99.40826611 818.1029942 102.48721814 C814.86612944 105.72153759 811.63172066 108.95831165 808.39691162 112.19468689 C802.96593323 117.62748065 797.53285887 123.05817162 792.09858704 128.4876709 C785.83068965 134.75012689 779.56640265 141.01617699 773.3039785 147.28410584 C767.91112412 152.68150936 762.51630947 158.07694774 757.11987442 163.47077125 C753.90381896 166.68527385 750.68842828 169.90043359 747.47480965 173.11737251 C744.45239734 176.14268976 741.42751807 179.16551921 738.40077972 182.18650818 C737.29544018 183.29053413 736.19093458 184.3953958 735.08736229 185.50118828 C733.57112948 187.02018819 732.05179391 188.5360202 730.53170776 190.05116272 C729.6853756 190.89711785 728.83904345 191.74307299 727.96706486 192.61466312 C725.81351324 194.67115192 723.63888439 196.62715965 721.38575649 198.56928921 C716.87527049 202.48726597 712.659642 206.66311868 708.44624329 210.89611816 C707.60384063 211.73837196 706.76143797 212.58062576 705.89350796 213.4484024 C703.57648785 215.76599336 701.26171411 218.0858002 698.94789457 220.40658569 C696.44390938 222.91698404 693.93698358 225.42444289 691.43040466 227.93225098 C687.09313724 232.27239661 682.7576477 236.61431155 678.42332458 240.95739746 C672.14852175 247.24479212 665.87044843 253.52891315 659.59149396 259.81216145 C649.39198475 270.01872842 639.19434571 280.2271616 628.99824524 290.43713379 C628.38880109 291.04740575 627.77935694 291.65767771 627.15144479 292.28644276 C622.82591428 296.61787324 618.50045086 300.94937072 614.17500305 305.28088379 C609.23396861 310.22884668 604.29290381 315.17677925 599.35176086 320.12463379 C598.74306479 320.73415799 598.13436871 321.34368219 597.5072273 321.97167683 C587.34764733 332.14495612 577.18609348 342.31626162 567.02313709 352.48616791 C560.76208269 358.75169495 554.50280907 365.01899091 548.24584603 371.28860378 C543.95752599 375.58536811 539.6674234 379.88034717 535.3759315 384.17394352 C532.90276676 386.64844914 530.43043009 389.12376748 527.9603157 391.60131836 C525.277114 394.29175411 522.59082099 396.97906607 519.90376282 399.66564941 C519.13098716 400.44202003 518.3582115 401.21839066 517.56201839 402.01828766 C513.47567112 406.09692663 509.30470907 410.00981881 504.92035347 413.76729298 C502.21708697 416.1116012 499.66265539 418.59888535 497.11030579 421.10510254 C496.56133133 421.64108063 496.01235687 422.17705872 495.44674683 422.72927856 C490.46612909 427.59942339 485.51021055 432.49489272 480.56165981 437.39759827 C477.24778323 440.68076579 473.9263617 443.95542244 470.58589172 447.21154785 C467.33649666 450.37915639 464.10701497 453.56582897 460.89081001 456.76712036 C459.66600945 457.97967116 458.43432947 459.1853142 457.19572258 460.38375854 C455.46964711 462.05653522 453.77032895 463.75266482 452.07514954 465.45666504 C451.56048126 465.94414215 451.04581299 466.43161926 450.51554871 466.93386841 C448.90283361 468.50387872 448.90283361 468.50387872 447.17500305 471.28088379 C447.29874811 476.99715017 448.99291512 480.03595572 452.42500305 484.53088379 C453.33993712 485.75582575 454.25257666 486.98248386 455.1632843 488.21057129 C455.65135559 488.86380371 456.13942688 489.51703613 456.64228821 490.19006348 C459.39526946 493.94548422 461.99658128 497.80435311 464.61250305 501.65588379 C465.72953884 503.29400808 466.84672564 504.93202941 467.96406555 506.56994629 C468.50708313 507.36690918 469.05010071 508.16387207 469.60957336 508.98498535 C477.04976228 519.896953 484.58148717 530.74437964 492.13130188 541.58068848 C496.87021788 548.38878748 501.56730882 555.22399818 506.24092102 562.07702637 C510.51585749 568.33717666 514.84006195 574.56216978 519.17500305 580.78088379 C525.73715041 590.19573048 532.23708985 599.651113 538.70625305 609.13000488 C545.43687578 618.98651855 552.22736887 628.80035653 559.05000305 638.59338379 C565.65266491 648.07147374 572.19478286 657.58912302 578.70625305 667.13000488 C586.12131272 677.9888273 593.61465628 688.79198753 601.13130188 699.58068848 C605.87021788 706.38878748 610.56730882 713.22399818 615.24092102 720.07702637 C619.51585749 726.33717666 623.84006195 732.56216978 628.17500305 738.78088379 C634.73715041 748.19573048 641.23708985 757.651113 647.70625305 767.13000488 C655.12131272 777.9888273 662.61465628 788.79198753 670.13130188 799.58068848 C674.87021788 806.38878748 679.56730882 813.22399818 684.24092102 820.07702637 C688.51585749 826.33717666 692.84006195 832.56216978 697.17500305 838.78088379 C703.73715041 848.19573048 710.23708985 857.651113 716.70625305 867.13000488 C723.43687578 876.98651855 730.22736887 886.80035653 737.05000305 896.59338379 C743.65266491 906.07147374 750.19478286 915.58912302 756.70625305 925.13000488 C764.12131272 935.9888273 771.61465628 946.79198753 779.13130188 957.58068848 C783.87021788 964.38878748 788.56730882 971.22399818 793.24092102 978.07702637 C797.51585749 984.33717666 801.84006195 990.56216978 806.17500305 996.78088379 C812.73715041 1006.19573048 819.23708985 1015.651113 825.70625305 1025.13000488 C832.43687578 1034.98651855 839.22736887 1044.80035653 846.05000305 1054.59338379 C852.63525705 1064.04648484 859.15978337 1073.53919023 865.65351868 1083.05529785 C868.61601733 1087.38876027 871.59479861 1091.71105744 874.57466125 1096.03259277 C875.39467982 1097.22331119 876.20981824 1098.41741026 877.01924133 1099.61535645 C878.14197171 1101.23328348 879.34337284 1102.79572238 880.5460968 1104.35510254 C882.58984907 1108.02601488 882.15272738 1109.2625105 881.17500305 1113.28088379 C880.3142655 1115.32858841 879.37108877 1117.34279663 878.3664093 1119.32385254 C877.78882874 1120.47135986 877.21124817 1121.61886719 876.61616516 1122.80114746 C875.99025417 1124.02371818 875.36402714 1125.24612715 874.73750305 1126.46838379 C874.09969289 1127.72633879 873.4624083 1128.9845604 872.82563782 1130.24304199 C867.71890882 1140.31187131 862.54557656 1150.34990199 857.17500305 1160.28088379 C856.74075012 1161.08735352 856.30649719 1161.89382324 855.85908508 1162.72473145 C855.41806458 1163.53345703 854.97704407 1164.34218262 854.5226593 1165.17541504 C853.9214325 1166.28106812 853.9214325 1166.28106812 853.30805969 1167.40905762 C852.17500305 1169.28088379 852.17500305 1169.28088379 850.17500305 1171.28088379 C847.30912495 1171.55211926 847.30912495 1171.55211926 843.56570435 1171.58195496 C842.87881411 1171.5900139 842.19192387 1171.59807284 841.48421878 1171.60637599 C839.17124693 1171.63083894 836.8584411 1171.64083061 834.54536438 1171.65075684 C832.89141709 1171.66491976 831.23747609 1171.6798353 829.58354187 1171.69544983 C824.14142598 1171.74275114 818.69929398 1171.76838607 813.2570343 1171.79260254 C811.38437545 1171.80200869 809.51171703 1171.8115031 807.63905907 1171.82108498 C799.84900542 1171.8595907 792.05896271 1171.89280259 784.26883411 1171.91145611 C773.10141313 1171.93825979 761.93515133 1171.99578912 750.76815015 1172.09722108 C742.91837952 1172.16608478 735.068917 1172.20042117 727.21885127 1172.20902091 C722.52942643 1172.21502571 717.84119311 1172.23600835 713.15209389 1172.29358482 C708.73816997 1172.34696071 704.32618558 1172.35749079 699.91201401 1172.33543968 C698.29426247 1172.33472358 696.6764184 1172.34935105 695.0589695 1172.38064957 C682.84133907 1172.60399083 682.84133907 1172.60399083 678.68997002 1169.30771351 C676.89840011 1167.03924558 675.51165518 1164.83738577 674.17500305 1162.28088379 C673.50662415 1161.33189209 672.83824524 1160.38290039 672.14961243 1159.40515137 C671.61142883 1158.58683838 671.07324524 1157.76852539 670.51875305 1156.92541504 C669.89766663 1155.98633301 669.2765802 1155.04725098 668.63667297 1154.07971191 C667.9893219 1153.09422363 667.34197083 1152.10873535 666.67500305 1151.09338379 C665.24495126 1148.9326066 663.81394297 1146.77246216 662.3820343 1144.61291504 C661.6699884 1143.53864258 660.9579425 1142.46437012 660.22431946 1141.35754395 C657.30501346 1136.97475931 654.33836413 1132.62538625 651.36250305 1128.28088379 C644.29853513 1117.95573341 637.29624763 1107.58949333 630.30000305 1097.21838379 C629.43044479 1095.92944717 629.43044479 1095.92944717 628.5433197 1094.61447144 C626.17384858 1091.10217858 623.80443817 1087.58984479 621.43518066 1084.07740784 C615.47799956 1075.24632799 609.51458124 1066.4194686 603.55000305 1057.59338379 C602.51549328 1056.06246239 601.48098808 1054.53153791 600.44648743 1053.00061035 C597.3560961 1048.42729824 594.26556366 1043.85408151 591.17500305 1039.28088379 C587.04987448 1033.176804 582.92483146 1027.07266642 578.80000305 1020.96838379 C578.03112762 1019.8305394 578.03112762 1019.8305394 577.24671936 1018.66970825 C568.48340491 1005.70066948 559.72575343 992.72781374 550.96955872 979.75396729 C542.83292708 967.69826234 534.69334204 955.64455913 526.55000305 943.59338379 C525.78088593 942.45517685 525.78088593 942.45517685 524.99623108 941.29397583 C521.38929226 935.95618577 517.78216994 930.61851973 514.17500305 925.28088379 C510.04987448 919.176804 505.92483146 913.07266642 501.80000305 906.96838379 C501.03112762 905.8305394 501.03112762 905.8305394 500.24671936 904.66970825 C491.48340491 891.70066948 482.72575343 878.72781374 473.96955872 865.75396729 C462.74151575 849.11784816 451.50574684 832.48695802 440.26777649 815.85754395 C434.54797274 807.39356343 428.8290399 798.9289944 423.10993958 790.46453857 C421.54569518 788.1494105 419.98144513 785.83428624 418.41719055 783.51916504 C417.6431488 782.37357117 417.6431488 782.37357117 416.85346985 781.20483398 C413.74877327 776.60989275 410.64388227 772.01508296 407.53883362 767.42037964 C395.67735881 749.86831433 383.82046296 732.31317159 371.96955872 714.75396729 C362.81619027 701.19180616 353.65935929 687.63199039 344.4967804 674.0760498 C339.63932963 666.88930453 334.78328934 659.70162004 329.93229675 652.51051331 C327.61407211 649.07411788 325.29510588 645.63822321 322.97608948 642.20236206 C321.86825691 640.56054217 320.76078784 638.91847693 319.65370178 637.27615356 C318.12266341 635.00497007 316.59037331 632.73463594 315.05781555 630.46447754 C314.60589844 629.79336945 314.15398132 629.12226135 313.68836975 628.43081665 C311.97137255 625.88952431 310.25174887 623.37968599 308.36982727 620.95690918 C307.17500305 619.28088379 307.17500305 619.28088379 307.17500305 617.28088379 C302.06507975 619.93084401 298.2320539 623.77540483 294.11250305 627.71838379 C293.36170471 628.43051025 292.61090637 629.14263672 291.83735657 629.87634277 C286.85684026 634.61870439 281.96850207 639.44406722 277.13716125 644.33776855 C274.60762951 646.88917827 272.0393549 649.33176001 269.30000305 651.65588379 C265.37667973 654.98824627 261.79291638 658.6250369 258.17500305 662.28088379 C254.02992455 666.46933219 249.8658394 670.50759101 245.36250305 674.31213379 C242.17679554 677.17927055 239.18915548 680.23520257 236.17500305 683.28088379 C232.02991974 687.46932571 227.86583946 691.50759096 223.36250305 695.31213379 C220.17679537 698.1792707 217.1891576 701.23520455 214.17500305 704.28088379 C206.89396016 711.6379987 206.89396016 711.6379987 203.23750305 714.71838379 C199.14879155 718.17126975 195.43765608 721.98165577 191.67500305 725.78088379 C187.35438571 730.14349984 183.03482397 734.38349607 178.3351593 738.33947754 C174.4864101 741.79847999 170.89260855 745.5248116 167.27241516 749.22058105 C164.54715366 751.98583511 161.82066159 754.63325475 158.80781555 757.08557129 C156.14428062 759.00853575 156.14428062 759.00853575 155.17500305 761.28088379 C155.08292283 763.29361459 155.05750735 765.30949349 155.06147766 767.32432556 C155.06155351 768.62144722 155.06162935 769.91856888 155.0617075 771.25499725 C155.0668505 772.70820643 155.07206624 774.16141534 155.0773468 775.61462402 C155.07922316 777.14777326 155.0806371 778.68092312 155.08162594 780.21407318 C155.08472208 783.55797402 155.09096318 786.90184967 155.09954643 790.24574089 C155.11343647 795.68588318 155.12042972 801.12602128 155.12631226 806.56617737 C155.13295751 812.42297282 155.14009616 818.27976582 155.14949894 824.13655758 C155.17265762 838.66644973 155.17965758 853.196287 155.17671204 867.72619629 C155.17643841 869.3010953 155.17643841 869.3010953 155.17615926 870.90781045 C155.17462803 879.55699741 155.17245791 888.20618419 155.17025828 896.855371 C155.16834843 904.65199374 155.16710307 912.44861629 155.16670227 920.24523926 C155.16663795 921.35698446 155.16657363 922.46872966 155.16650736 923.61416411 C155.16635146 941.61985548 155.19501408 959.62539875 155.2334373 977.63104403 C155.27212432 996.11144121 155.27659785 1014.59162775 155.25016212 1033.07204723 C155.23499758 1044.47329655 155.24699179 1055.8738594 155.29380232 1067.27502555 C155.32341093 1075.09224282 155.32005537 1082.90901153 155.29083246 1090.72622854 C155.2749684 1095.2361731 155.27368462 1099.74487791 155.31176949 1104.25471687 C155.34635591 1108.38729746 155.33917621 1112.5176658 155.29937363 1116.65017998 C155.2922831 1118.14154798 155.30027312 1119.63308377 155.32522774 1121.12425983 C155.44666917 1128.89431974 155.10519849 1134.0790779 149.8097229 1140.02783203 C148.29168399 1141.47424899 146.74883416 1142.89538035 145.17500305 1144.28088379 C144.07569196 1145.40435339 142.98350541 1146.53495907 141.90596008 1147.67932129 C140.91752545 1148.67411248 139.92647979 1149.66631625 138.93281555 1150.65588379 C138.13023819 1151.45989624 138.13023819 1151.45989624 137.31144714 1152.28015137 C136.20208636 1153.39018207 135.09150486 1154.49899416 133.97969055 1155.60656738 C132.2779733 1157.3028431 130.5817732 1159.00450829 128.88594055 1160.70666504 C127.79772001 1161.79422604 126.70918999 1162.88147748 125.62031555 1163.96838379 C125.11718842 1164.47353516 124.61406128 1164.97868652 124.09568787 1165.49914551 C120.2040371 1169.36476489 117.79743504 1171.52303031 112.23648071 1171.5684967 C111.2173912 1171.58136215 110.1983017 1171.5942276 109.14833069 1171.60748291 C108.03089478 1171.61128967 106.91345886 1171.61509644 105.76216125 1171.61901855 C104.58463791 1171.63055466 103.40711456 1171.64209076 102.19390869 1171.65397644 C98.96223271 1171.68242517 95.73069669 1171.70150057 92.49892449 1171.71419263 C90.47783026 1171.72228185 88.45675639 1171.73246276 86.43567467 1171.74320793 C80.10639921 1171.7759318 73.77717334 1171.79982754 67.44782478 1171.81202179 C60.15250906 1171.82626153 52.85816328 1171.87008147 45.56316882 1171.93952328 C39.91800596 1171.99139791 34.27311801 1172.0162023 28.62772053 1172.02084392 C25.25908535 1172.02423448 21.89143071 1172.03896802 18.52305031 1172.08212471 C14.75953986 1172.12356073 10.99847781 1172.12073523 7.2348175 1172.1072998 C6.12750275 1172.12932465 5.02018799 1172.15134949 3.87931824 1172.17404175 C-2.84919739 1172.09255255 -6.40072408 1170.94931906 -11.16082573 1166.10859299 C-11.71000223 1165.50544895 -12.25917873 1164.90230492 -12.82499695 1164.28088379 C-13.9739432 1163.16435186 -15.12740995 1162.05243014 -16.28764343 1160.94763184 C-17.42644221 1159.81528062 -18.56253267 1158.68020006 -19.6960907 1157.54260254 C-20.3038887 1156.93576126 -20.91168671 1156.32891998 -21.53790283 1155.70368958 C-22.80531964 1154.4369465 -24.07150188 1153.16896706 -25.33647156 1151.89978027 C-27.2787696 1149.95206576 -29.22642835 1148.00982449 -31.17460632 1146.06799316 C-32.4112557 1144.83068396 -33.64759537 1143.59306511 -34.8835907 1142.35510254 C-35.4657988 1141.77491867 -36.0480069 1141.1947348 -36.64785767 1140.5969696 C-41.3508619 1135.86623941 -41.97283233 1133.52078888 -41.96185279 1127.03153479 C-41.96581973 1125.89038145 -41.96581973 1125.89038145 -41.96986681 1124.72617451 C-41.97759325 1122.14507254 -41.97813316 1119.56401722 -41.97877121 1116.98290443 C-41.98284409 1115.11846575 -41.98735055 1113.25402796 -41.99225426 1111.38959128 C-42.00453812 1106.22215358 -42.01050445 1101.05472435 -42.01547812 1095.88727513 C-42.0219247 1090.28202256 -42.03403136 1084.67678177 -42.04537988 1079.07153738 C-42.06696919 1067.93427756 -42.08297609 1056.79701585 -42.09722822 1045.65974449 C-42.1092257 1036.39682911 -42.12351327 1027.13391942 -42.13933182 1017.87100983 C-42.14162644 1016.52308927 -42.14392069 1015.17516871 -42.14621457 1013.82724815 C-42.14968416 1011.78943219 -42.15315402 1009.75161623 -42.15662754 1007.71380027 C-42.28340622 933.16458551 -42.35306915 858.61527484 -42.4737405 711.72235232 C-42.48317572 697.76677294 -42.49296581 683.81119382 -42.50292225 669.85561481 C-42.50468489 667.38134232 -42.50643548 664.90706982 -42.50818585 662.43279733 C-42.54522802 610.29251407 -42.61892738 558.15236857 -42.71428223 506.01216159 C-42.78385226 467.96268847 -42.84794264 429.91324642 -42.87318802 391.86371422 C-42.87370979 391.08125946 -42.87423155 390.29880471 -42.87476913 389.4926392 C-42.88611424 372.31591892 -42.89442915 355.13919852 -42.89988941 337.9624754 C-42.9021355 331.05119986 -42.90479474 324.13992448 -42.90758514 317.22864914 C-42.9078798 316.4722447 -42.90817446 315.71584025 -42.90847805 314.93651446 C-42.91816905 290.56631366 -42.96230584 266.19632517 -43.0243649 241.82620599 C-43.08670196 217.27822207 -43.11455886 192.73045759 -43.0946796 168.182395 C-43.09193959 164.789853 -43.08958986 161.39731082 -43.08747482 158.00476837 C-43.08704581 157.33973718 -43.0866168 156.67470599 -43.08617479 155.98952233 C-43.08004547 144.82069549 -43.11754972 133.65229486 -43.16663313 122.4835867 C-43.20631013 112.76943188 -43.20619147 103.05580856 -43.17347106 93.34162907 C-43.15595779 87.80276641 -43.15596087 82.26541498 -43.20439073 76.72670288 C-43.24811978 71.68641036 -43.24109797 66.64882082 -43.19377801 61.60858399 C-43.1856355 59.79779252 -43.19589684 57.98679958 -43.22693664 56.17625586 C-43.37563994 46.90825895 -43.10977069 40.26329866 -36.44506097 33.34352148 C-34.61897822 31.58916976 -32.74101976 29.94048922 -30.82499695 28.28088379 C-29.71313618 27.11286257 -28.61629879 25.92997566 -27.5476532 24.72229004 C-26.66980164 23.77225098 -25.79195007 22.82221191 -24.88749695 21.84338379 C-23.89138086 20.76527943 -22.89528787 19.68715372 -21.8992157 18.60900879 C-21.39954285 18.06824707 -20.89987 17.52748535 -20.38505554 16.97033691 C-18.74540672 15.19469218 -17.10730399 13.41763119 -15.4695282 11.64025879 C-14.9222406 11.04656494 -14.374953 10.45287109 -13.81108093 9.84118652 C-12.7594966 8.70036334 -11.70821324 7.55926263 -10.65727234 6.41784668 C-4.76866587 0.03192218 -4.76866587 0.03192218 0 0 Z " fill="#FEFEFE" transform="translate(616.8249969482422,430.7191162109375)"/>
<path d="M0 0 C675.84 0 1351.68 0 2048 0 C2048 675.84 2048 1351.68 2048 2048 C1372.16 2048 696.32 2048 0 2048 C0 1372.16 0 696.32 0 0 Z M34 34 C34 687.4 34 1340.8 34 2014 C687.4 2014 1340.8 2014 2014 2014 C2014 1360.6 2014 707.2 2014 34 C1360.6 34 707.2 34 34 34 Z " fill="#FFFFFF" transform="translate(0,0)"/>
</svg>
