<?xml version="1.0" encoding="UTF-8"?>
<svg version="1.1" xmlns="http://www.w3.org/2000/svg" width="248" height="203">
<path d="M0 0 C81.84 0 163.68 0 248 0 C248 66.99 248 133.98 248 203 C166.16 203 84.32 203 0 203 C0 136.01 0 69.02 0 0 Z " fill="#FCFCFC" transform="translate(0,0)"/>
<path d="M0 0 C3.84099662 0.09095256 8.39919753 0.39919753 11.25 3.25 C11.16036938 4.94141656 11.00422324 6.62959602 10.8125 8.3125 C10.71066406 9.23160156 10.60882813 10.15070312 10.50390625 11.09765625 C10.42011719 11.80792969 10.33632812 12.51820312 10.25 13.25 C10.86359375 13.39308594 11.4771875 13.53617188 12.109375 13.68359375 C14.35207767 14.2770096 16.21029847 15.15730275 18.25 16.25 C19.3328125 15.2290625 19.3328125 15.2290625 20.4375 14.1875 C23.25 12.25 23.25 12.25 25.6875 12 C29.70505426 13.95978256 32.21514455 17.30615644 34.25 21.25 C34.56640625 23.87109375 34.56640625 23.87109375 34.25 26.25 C30.14189189 30.25 30.14189189 30.25 27.25 30.25 C28.24 33.22 29.23 36.19 30.25 39.25 C31.36375 39.37375 32.4775 39.4975 33.625 39.625 C37.25 40.25 37.25 40.25 39.25 42.25 C39.33203125 44.96484375 39.33203125 44.96484375 39.0625 48.1875 C38.98644531 49.24839844 38.91039062 50.30929688 38.83203125 51.40234375 C38.25 54.25 38.25 54.25 36.98046875 56.13671875 C34.70752265 57.59899785 33.41104246 57.39997439 30.75 57.125 C28.4004777 56.99181939 28.4004777 56.99181939 26.25 57.25 C23.86058877 59.28716734 23.86058877 59.28716734 23.25 62.25 C23.91280383 64.68028072 24.4510972 66.4510972 26.25 68.25 C26.57421875 70.5703125 26.57421875 70.5703125 26.25 73.25 C24.45703125 75.3046875 24.45703125 75.3046875 22.0625 77.125 C21.28519531 77.74117188 20.50789063 78.35734375 19.70703125 78.9921875 C17.25 80.25 17.25 80.25 14.5625 80.06640625 C11.67588539 79.04731427 10.76057114 77.87362356 9.25 75.25 C9.25 74.59 9.25 73.93 9.25 73.25 C6.01734274 73.46008884 3.19366533 73.85645631 0.25 75.25 C-1.44798345 78.11665724 -2.16580039 80.98654012 -2.75 84.25 C-4.68719378 84.30406122 -6.62481921 84.34282025 -8.5625 84.375 C-9.64144531 84.39820312 -10.72039062 84.42140625 -11.83203125 84.4453125 C-14.75 84.25 -14.75 84.25 -17.75 82.25 C-18.04296875 79.8671875 -18.04296875 79.8671875 -17.9375 77.125 C-17.91042969 76.21492188 -17.88335937 75.30484375 -17.85546875 74.3671875 C-17.82066406 73.66851562 -17.78585938 72.96984375 -17.75 72.25 C-20.06 70.93 -22.37 69.61 -24.75 68.25 C-25.471875 68.930625 -26.19375 69.61125 -26.9375 70.3125 C-29.75 72.25 -29.75 72.25 -32.1875 72.4375 C-36.09989988 70.62443664 -38.49481672 67.89413723 -40.75 64.25 C-41.4375 61.0625 -41.4375 61.0625 -40.75 58.25 C-39.904375 57.651875 -39.05875 57.05375 -38.1875 56.4375 C-37.383125 55.715625 -36.57875 54.99375 -35.75 54.25 C-35.59912554 51.15168519 -36.09761493 48.27293282 -36.75 45.25 C-38.420625 45.064375 -38.420625 45.064375 -40.125 44.875 C-43.75 44.25 -43.75 44.25 -45.75 42.25 C-46.09916177 37.01257341 -45.72346879 33.18367197 -43.75 28.25 C-42.99074219 28.23582031 -42.23148438 28.22164062 -41.44921875 28.20703125 C-35.350006 28.11917217 -35.350006 28.11917217 -30.4375 25 C-29.59594033 21.63376132 -30.08597219 20.24525007 -31.75 17.25 C-32.08 16.92 -32.41 16.59 -32.75 16.25 C-33.078125 13.9296875 -33.078125 13.9296875 -32.75 11.25 C-30.921875 9.1953125 -30.921875 9.1953125 -28.5 7.375 C-27.71109375 6.75882812 -26.9221875 6.14265625 -26.109375 5.5078125 C-23.75 4.25 -23.75 4.25 -21.59375 4.43359375 C-19.04186088 5.5635616 -17.54272021 7.13715118 -15.75 9.25 C-15.75 9.91 -15.75 10.57 -15.75 11.25 C-12.78 10.59 -9.81 9.93 -6.75 9.25 C-6.564375 7.579375 -6.564375 7.579375 -6.375 5.875 C-5.52410394 0.93980285 -5.02929659 0.33528644 0 0 Z " fill="#020202" transform="translate(178.75,0.75)"/>
<path d="M0 0 C-0.0625 2.6875 -0.0625 2.6875 -1 6 C-2.70233918 7.54339842 -4.45047076 8.7195517 -6.40625 9.921875 C-8.16526457 10.9219781 -8.16526457 10.9219781 -9 13 C-11.03454634 13.21130303 -13.08037488 13.31553663 -15.125 13.375 C-32.60390949 14.43970515 -49.1838311 20.66893765 -61 34 C-68.65433437 44.45340639 -72.90558451 55.29571658 -75 68 C-75.92039063 68.13535156 -76.84078125 68.27070312 -77.7890625 68.41015625 C-89.34118709 70.37472326 -101.60333407 73.80720474 -109.6015625 83.0234375 C-116.26884359 92.44702474 -117.38532514 101.75915533 -116 113 C-113.80875 123.19726957 -107.76701025 132.24611755 -99 138 C-95.70830815 139.55186644 -92.43652042 140.77603382 -89 142 C-89 146.95 -89 151.9 -89 157 C-101.13963141 156.5330911 -110.91228938 149.64935719 -119 141 C-126.42559622 132.29812943 -131.45208814 121.5061491 -132 110 C-132.05027344 109.08734375 -132.10054687 108.1746875 -132.15234375 107.234375 C-132.57991293 93.89421671 -128.50985447 82.02013153 -119.875 71.8125 C-114.14803795 65.80342159 -107.93232154 61.11648871 -99.91796875 58.6953125 C-91.94053132 56.55074431 -91.94053132 56.55074431 -86.078125 51.12109375 C-84.86316416 47.77995143 -83.93001811 44.42993859 -83 41 C-74.98889586 22.96287764 -60.93978543 10.49838368 -42.81640625 3.40625 C-41.54578777 2.93340355 -40.27376678 2.46429868 -39 2 C-38.03964844 1.6390625 -37.07929687 1.278125 -36.08984375 0.90625 C-25.20273052 -2.4773708 -11.12076628 -2.46880764 0 0 Z " fill="#030303" transform="translate(132,10)"/>
<path d="M0 0 C6.27 0 12.54 0 19 0 C23.21057415 9.8601018 27.0272152 19.84584157 30.78588867 29.88525391 C31.82393029 32.65550432 32.86786512 35.42348882 33.91210938 38.19140625 C34.57327119 39.95299198 35.2340914 41.71470597 35.89453125 43.4765625 C36.36316338 44.71703842 36.36316338 44.71703842 36.84126282 45.98257446 C39 51.77075189 39 51.77075189 39 54 C33.39 54 27.78 54 22 54 C21.01 51.36 20.02 48.72 19 46 C12.73 46 6.46 46 0 46 C-0.99 48.64 -1.98 51.28 -3 54 C-8.61 54 -14.22 54 -20 54 C-13.56661027 35.90708419 -6.85861105 17.9349474 0 0 Z " fill="#020202" transform="translate(77,148)"/>
<path d="M0 0 C5.61 -0.103125 11.22 -0.20625 17 -0.3125 C19.63162109 -0.38078003 19.63162109 -0.38078003 22.31640625 -0.45043945 C36.10139804 -0.65925019 36.10139804 -0.65925019 41.6875 3.65478516 C45.33198872 7.39011493 46.17539533 10.87061227 46.375 15.9375 C46.16906583 21.89168352 45.01635432 26.08704847 40.5625 30.3125 C36.81625231 32.77954116 34.21615641 34.26023081 29.671875 34.1953125 C28.5905127 34.18781982 28.5905127 34.18781982 27.48730469 34.18017578 C26.58399414 34.16196777 25.68068359 34.14375977 24.75 34.125 C21.8625 34.08375 18.975 34.0425 16 34 C16 40.6 16 47.2 16 54 C10.72 54 5.44 54 0 54 C0 36.18 0 18.36 0 0 Z " fill="#020202" transform="translate(121,148)"/>
<path d="M0 0 C8.44191672 3.83230481 12.81735212 12.76799627 16.26757812 20.98193359 C22.39794438 37.87313607 21.50487725 57.74755479 14 74 C12.1792139 77.14721898 10.18948557 80.09893162 8 83 C7.401875 83.81726563 6.80375 84.63453125 6.1875 85.4765625 C-0.64109428 93.35383376 -11.17146998 98.89543258 -21 102 C-21.99 102 -22.98 102 -24 102 C-24 97.05 -24 92.1 -24 87 C-21.999375 85.96875 -19.99875 84.9375 -17.9375 83.875 C-6.88089865 77.95094037 -0.61827493 71.56077604 3.14453125 59.2578125 C6.12293233 46.38637629 5.09375912 31.82311848 -1.53125 20.34765625 C-3.49504994 17.3008784 -5.43490906 14.56509094 -8 12 C-8.5625 9.6875 -8.5625 9.6875 -8 7 C-6.30750839 5.48884678 -4.55607362 4.30851435 -2.62890625 3.11328125 C-0.83937637 2.083831 -0.83937637 2.083831 0 0 Z " fill="#030303" transform="translate(228,63)"/>
<path d="M0 0 C5.61 0 11.22 0 17 0 C17 17.82 17 35.64 17 54 C11.39 54 5.78 54 0 54 C0 36.18 0 18.36 0 0 Z " fill="#020202" transform="translate(174,148)"/>
<path d="M0 0 C4.57631731 2.45124556 7.68661628 5.66229505 9.99609375 10.28125 C10.50339025 15.83656248 10.75869797 20.69955236 8.30859375 25.78125 C4.11621202 30.31355457 0.99523177 32.83770924 -5.15234375 33.51953125 C-10.6524684 33.70286874 -13.68254071 32.9996343 -18.00390625 29.28125 C-21.85193172 25.11255574 -23.69917831 21.58847579 -24.44140625 15.96875 C-23.72535066 9.93342435 -20.77410592 5.92500684 -16.37890625 1.84375 C-11.5180669 -1.35417063 -5.50630725 -1.9749718 0 0 Z " fill="#FAFAFA" transform="translate(182.00390625,26.71875)"/>
<path d="M0 0 C3.8775 -0.04125 7.755 -0.0825 11.75 -0.125 C12.96655273 -0.14320801 14.18310547 -0.16141602 15.43652344 -0.18017578 C16.40106445 -0.1851709 17.36560547 -0.19016602 18.359375 -0.1953125 C19.34389648 -0.20578613 20.32841797 -0.21625977 21.34277344 -0.22705078 C24.12420244 0.01061267 25.68502545 0.46497417 28 2 C30.17240606 5.25860909 30.23564158 5.82050803 29.8125 9.5 C29.73644531 10.2734375 29.66039063 11.046875 29.58203125 11.84375 C28.89158772 14.40163474 28.11471972 15.4253161 26 17 C25.01 17 24.02 17 23 17 C23 17.66 23 18.32 23 19 C23.99 19.33 24.98 19.66 26 20 C27.60546875 22.43359375 27.60546875 22.43359375 29.1875 25.4375 C29.71730469 26.42621094 30.24710938 27.41492188 30.79296875 28.43359375 C32 31 32 31 32 33 C28.11476325 33.75878041 24.84669566 34.04721364 21 33 C18.60205405 30.09630545 17.11256973 27.23333502 15.53515625 23.8203125 C14.12233225 20.58468148 14.12233225 20.58468148 10 19 C10 23.62 10 28.24 10 33 C6.7 33 3.4 33 0 33 C0 22.11 0 11.22 0 0 Z " fill="#050505" transform="translate(60,103)"/>
<path d="M0 0 C2.72308594 1.0570629 4.51165924 2.08279764 6.2265625 4.46875 C6.7890625 6.46875 6.7890625 6.46875 6.7890625 9.46875 C5.16487505 9.54965971 3.53954505 9.60789995 1.9140625 9.65625 C1.00914062 9.69105469 0.10421875 9.72585937 -0.828125 9.76171875 C-2.00761719 9.61669922 -2.00761719 9.61669922 -3.2109375 9.46875 C-3.8709375 8.47875 -4.5309375 7.48875 -5.2109375 6.46875 C-7.79473927 6.21844023 -7.79473927 6.21844023 -10.2109375 6.46875 C-10.2109375 7.45875 -10.2109375 8.44875 -10.2109375 9.46875 C-9.16292969 9.78328125 -8.11492187 10.0978125 -7.03515625 10.421875 C-5.6560226 10.85344063 -4.27712859 11.28577263 -2.8984375 11.71875 C-2.20814453 11.92371094 -1.51785156 12.12867187 -0.80664062 12.33984375 C2.2348225 13.30958562 4.46900308 14.14869058 6.74609375 16.42578125 C8.34863746 19.56484628 8.15385829 22.00319001 7.7890625 25.46875 C5.96359207 29.69615521 3.85697509 31.42613857 -0.2109375 33.46875 C-6.92212652 34.40136755 -13.43744967 34.153955 -19.2109375 30.46875 C-21.31641844 27.20865049 -22.2109375 25.34988382 -22.2109375 21.46875 C-18.83309534 21.18356633 -15.57676401 21.00430965 -12.2109375 21.46875 C-10.3984375 23.96875 -10.3984375 23.96875 -9.2109375 26.46875 C-6.58399328 26.88655879 -6.58399328 26.88655879 -4.2109375 26.46875 C-3.8809375 24.81875 -3.5509375 23.16875 -3.2109375 21.46875 C-4.01917969 21.22640625 -4.82742187 20.9840625 -5.66015625 20.734375 C-17.52979357 17.0116902 -17.52979357 17.0116902 -20.2109375 13.46875 C-20.89743075 10.32135296 -20.94989841 7.60933388 -20.2109375 4.46875 C-14.66134399 -1.37292738 -7.64828646 -1.83775081 0 0 Z " fill="#060606" transform="translate(147.2109375,102.53125)"/>
<path d="M0 0 C8.91 0 17.82 0 27 0 C27 1.98 27 3.96 27 6 C21.39 6 15.78 6 10 6 C10 7.98 10 9.96 10 12 C15.28 12 20.56 12 26 12 C26 13.98 26 15.96 26 18 C20.72 18 15.44 18 10 18 C10 20.31 10 22.62 10 25 C15.61 25 21.22 25 27 25 C27 27.31 27 29.62 27 32 C18.09 32 9.18 32 0 32 C0 21.44 0 10.88 0 0 Z " fill="#010101" transform="translate(95,103)"/>
<path d="M0 0 C10.23 0 20.46 0 31 0 C31 2.64 31 5.28 31 8 C27.7 8 24.4 8 21 8 C21 16.25 21 24.5 21 33 C17.37 33 13.74 33 10 33 C10 24.75 10 16.5 10 8 C6.7 8 3.4 8 0 8 C0 5.36 0 2.72 0 0 Z " fill="#111111" transform="translate(157,103)"/>
<path d="M0 0 C6.27 0 12.54 0 19 0 C19.99 2.97 20.98 5.94 22 9 C27.94 8.67 33.88 8.34 40 8 C40 8.66 40 9.32 40 10 C20.2 10 0.4 10 -20 10 C-20 9.67 -20 9.34 -20 9 C-11.585 8.505 -11.585 8.505 -3 8 C-2.01 5.36 -1.02 2.72 0 0 Z " fill="#E4E4E4" transform="translate(77,193)"/>
<path d="M0 0 C8.21900826 -0.48347107 8.21900826 -0.48347107 11.625 1.625 C13 4 13 4 12.9375 7.125 C12 10 12 10 9 12 C5.97670744 12.2610788 3.04123758 12.08815181 0 12 C0 8.04 0 4.08 0 0 Z " fill="#FAFAFA" transform="translate(138,159)"/>
<path d="M0 0 C2 1 2 1 3.0703125 3.765625 C3.59238281 5.49039063 3.59238281 5.49039063 4.125 7.25 C4.47820312 8.38953125 4.83140625 9.5290625 5.1953125 10.703125 C6 14 6 14 6 19 C2.37 19 -1.26 19 -5 19 C-4.48378772 12.16018724 -2.51409031 6.36123316 0 0 Z " fill="#ECECEC" transform="translate(86,163)"/>
<path d="M0 0 C6.0546875 -0.1953125 6.0546875 -0.1953125 8 0 C8.66 0.66 9.32 1.32 10 2 C9.46428571 5.53571429 9.46428571 5.53571429 8 7 C5.32941149 7.14115161 2.67567762 7.04247107 0 7 C0 4.69 0 2.38 0 0 Z " fill="#EBEBEB" transform="translate(70,109)"/>
<path d="M0 0 C1.2065625 0.0309375 1.2065625 0.0309375 2.4375 0.0625 C3.0975 1.3825 3.7575 2.7025 4.4375 4.0625 C6.0875 4.0625 7.7375 4.0625 9.4375 4.0625 C8.23046875 5.61328125 8.23046875 5.61328125 6.4375 7.0625 C4.17578125 6.91796875 4.17578125 6.91796875 1.75 6.25 C0.94175781 6.03730469 0.13351563 5.82460937 -0.69921875 5.60546875 C-1.31410156 5.42628906 -1.92898437 5.24710937 -2.5625 5.0625 C-3.125 3.125 -3.125 3.125 -3.5625 1.0625 C-2.5625 0.0625 -2.5625 0.0625 0 0 Z " fill="#EBEBEB" transform="translate(139.5625,107.9375)"/>
</svg>
