<?xml version="1.0" encoding="UTF-8"?>
<svg version="1.1" xmlns="http://www.w3.org/2000/svg" width="271" height="186">
<path d="M0 0 C89.43 0 178.86 0 271 0 C271 61.38 271 122.76 271 186 C181.57 186 92.14 186 0 186 C0 124.62 0 63.24 0 0 Z " fill="#FEFEFE" transform="translate(0,0)"/>
<path d="M0 0 C35.64 0 71.28 0 108 0 C108 34.98 108 69.96 108 106 C72.36 106 36.72 106 0 106 C0 71.02 0 36.04 0 0 Z " fill="#CE0304" transform="translate(26,42)"/>
<path d="M0 0 C2.96304785 1.20710753 5.60718477 2.54924143 8.3581543 4.17724609 C9.3359082 4.75047607 10.31366211 5.32370605 11.32104492 5.91430664 C13.42795238 7.17160664 15.53204479 8.43363387 17.63354492 9.69995117 C22.50075128 12.61961168 27.28895122 15.43493602 32.4753418 17.75146484 C41.55690449 21.9601289 41.55690449 21.9601289 44.11987305 25.27099609 C46.03508359 31.50311526 45.11373886 37.94403333 44.11987305 44.27099609 C41.92475991 45.6722601 39.7180635 47.04061037 37.49487305 48.39599609 C36.87741211 48.79431641 36.25995117 49.19263672 35.6237793 49.60302734 C32.52073925 51.46485137 30.84322411 52.44792335 27.25219727 51.56958008 C24.10788147 50.26602468 21.28152036 48.78306516 18.35424805 47.04833984 C17.29979492 46.42765625 16.2453418 45.80697266 15.15893555 45.16748047 C14.07354492 44.52101562 12.9881543 43.87455078 11.86987305 43.20849609 C9.69820901 41.92558683 7.52634436 40.64301709 5.35424805 39.36083984 C4.39744141 38.79228271 3.44063477 38.22372559 2.45483398 37.63793945 C1.03404376 36.80617403 -0.40758396 36.00726759 -1.88012695 35.27099609 C-2.71002945 43.90901251 -2.71002945 43.90901251 -0.88012695 52.27099609 C1.37112662 54.34284385 3.89894612 55.48286663 6.68237305 56.70849609 C9.47748021 57.946688 11.94681469 59.08919304 14.11987305 61.27099609 C16.0431554 67.04084315 14.97856939 73.37461451 14.11987305 79.27099609 C11.83113131 80.60958134 9.53917648 81.94200624 7.24487305 83.27099609 C6.59389648 83.65255859 5.94291992 84.03412109 5.2722168 84.42724609 C0.34643555 87.27099609 0.34643555 87.27099609 -1.88012695 87.27099609 C-1.88012695 93.54099609 -1.88012695 99.81099609 -1.88012695 106.27099609 C-4.10762695 107.61162109 -6.33512695 108.95224609 -8.63012695 110.33349609 C-9.32460937 110.76025635 -10.0190918 111.1870166 -10.73461914 111.62670898 C-15.36628302 114.34143062 -15.36628302 114.34143062 -17.67724609 114.0246582 C-18.40419678 113.77594971 -19.13114746 113.52724121 -19.88012695 113.27099609 C-20.93804443 112.96871094 -21.99596191 112.66642578 -23.0859375 112.35498047 C-27.23324092 110.58580442 -30.36539589 109.10707218 -32.88012695 105.27099609 C-35.1715112 96.76690632 -34.09025273 87.46913211 -33.69262695 78.77099609 C-33.62738264 76.30239736 -33.56807316 73.83363417 -33.51489258 71.36474609 C-33.37197801 65.32989704 -33.15483292 59.30120648 -32.88012695 53.27099609 C-33.83274414 53.87169922 -34.78536133 54.47240234 -35.7668457 55.09130859 C-37.03319113 55.86049619 -38.30015093 56.62867295 -39.56762695 57.39599609 C-40.1934668 57.79431641 -40.81930664 58.19263672 -41.46411133 58.60302734 C-46.20464515 61.43245591 -46.20464515 61.43245591 -49.65625 60.60742188 C-50.39012939 60.16640137 -51.12400879 59.72538086 -51.88012695 59.27099609 C-52.83532227 58.77341797 -53.79051758 58.27583984 -54.7746582 57.76318359 C-55.73758789 57.22951172 -56.70051758 56.69583984 -57.69262695 56.14599609 C-58.66844727 55.60716797 -59.64426758 55.06833984 -60.6496582 54.51318359 C-61.38571289 54.10326172 -62.12176758 53.69333984 -62.88012695 53.27099609 C-63.7500708 46.93651611 -64.53764429 40.53732098 -62.88012695 34.27099609 C-59.46587245 30.35281349 -55.26309325 28.62820987 -50.60375977 26.56201172 C-45.51739605 24.15104979 -40.70465757 21.2283093 -35.84344482 18.39797974 C-34.00889335 17.33567704 -32.16718507 16.28715597 -30.32202148 15.2434082 C-24.99512767 12.22960507 -19.69388579 9.19572945 -14.50512695 5.94677734 C-13.34279541 5.22639282 -13.34279541 5.22639282 -12.15698242 4.49145508 C-10.769988 3.6242295 -9.39298942 2.74070266 -8.02905273 1.83764648 C-4.99884321 -0.04642371 -3.53664558 -0.89517875 0 0 Z " fill="#EC8E28" transform="translate(206.880126953125,35.72900390625)"/>
<path d="M0 0 C-0.11794922 1.7015625 -0.11794922 1.7015625 -0.23828125 3.4375 C-0.69576645 11.45360064 -0.69576645 11.45360064 2.24267578 18.62255859 C5.69919473 21.66547698 9.57478595 23.71542957 14 25 C16.67584416 24.45153881 16.67584416 24.45153881 19 23 C19.78761719 22.57460937 20.57523438 22.14921875 21.38671875 21.7109375 C22.92867733 20.81560671 24.4703411 19.91976803 26.01171875 19.0234375 C28 18 28 18 30 18 C31.56039777 29.73632513 31.56039777 29.73632513 30 35 C26.7720831 39.12772883 21.78613588 41.18520555 17 43 C16.34 43 15.68 43 15 43 C15 49.27 15 55.54 15 62 C12.7725 63.340625 10.545 64.68125 8.25 66.0625 C7.20827637 66.70264038 7.20827637 66.70264038 6.14550781 67.35571289 C1.50227354 70.07721619 1.50227354 70.07721619 -0.83105469 69.71850586 C-1.90468262 69.36284546 -1.90468262 69.36284546 -3 69 C-3.97775391 68.78150391 -4.95550781 68.56300781 -5.96289062 68.33789062 C-9.85516826 66.89762887 -12.74072136 65.51443345 -15 62 C-17.13390393 54.36757824 -16.7211583 46.21225476 -16.56445312 38.35791016 C-16.50012667 34.50758201 -16.56381595 30.67402632 -16.640625 26.82421875 C-16.69467254 9.62358892 -16.69467254 9.62358892 -13.79296875 5.13134766 C-9.89057469 1.37854537 -5.29792163 0 0 0 Z " fill="#E45C2D" transform="translate(190,80)"/>
<path d="M0 0 C2.86078694 1.29915727 5.54981996 2.67556457 8.25317383 4.27539062 C9.23092773 4.85015137 10.20868164 5.42491211 11.21606445 6.01708984 C12.24280273 6.6282666 13.26954102 7.23944336 14.32739258 7.86914062 C15.3837793 8.49191895 16.44016602 9.11469727 17.52856445 9.75634766 C19.67073793 11.01978886 21.81153811 12.28556152 23.95092773 13.55371094 C27.55162713 15.68716119 31.16007443 17.80719501 34.76953125 19.92578125 C37.85350621 21.73653093 40.93432109 23.55260798 44.01489258 25.36914062 C40.9595588 27.88118442 37.93401589 30.18915856 34.51489258 32.18164062 C33.78270508 32.62121094 33.05051758 33.06078125 32.29614258 33.51367188 C29.36227019 34.61387402 28.02497154 34.20166945 25.01489258 33.36914062 C23.11181129 32.39709153 21.24743724 31.34730083 19.41723633 30.24414062 C18.36858398 29.62023437 17.31993164 28.99632813 16.23950195 28.35351562 C15.15475586 27.69867188 14.07000977 27.04382813 12.95239258 26.36914062 C10.79756805 25.07292883 8.6401205 23.78106486 6.47973633 22.49414062 C5.52703857 21.91921875 4.57434082 21.34429687 3.59277344 20.75195312 C0.45218107 19.02423971 0.45218107 19.02423971 -2.98510742 18.36914062 C-5.57266145 19.36187366 -5.57266145 19.36187366 -8.24682617 20.98242188 C-9.79031738 21.85894409 -9.79031738 21.85894409 -11.36499023 22.75317383 C-12.45650391 23.38956787 -13.54801758 24.02596191 -14.67260742 24.68164062 C-16.34661621 25.63719849 -16.34661621 25.63719849 -18.05444336 26.61206055 C-23.14361184 29.5265865 -28.20348244 32.48797078 -33.23901367 35.49414062 C-34.00834229 35.95264404 -34.7776709 36.41114746 -35.5703125 36.88354492 C-36.97484532 37.72575773 -38.37475467 38.5757481 -39.76904297 39.43481445 C-46.29616079 43.38079606 -46.29616079 43.38079606 -49.98510742 43.36914062 C-52.44762548 42.14798572 -54.54214829 40.95288117 -56.79760742 39.43164062 C-57.39508789 39.04556641 -57.99256836 38.65949219 -58.6081543 38.26171875 C-60.07576464 37.31070725 -61.53165652 36.34165462 -62.98510742 35.36914062 C-60.58541061 32.71348275 -58.02066553 31.08915509 -54.91870117 29.32226562 C-53.37218872 28.43619629 -53.37218872 28.43619629 -51.79443359 27.53222656 C-50.68173096 26.9009082 -49.56902832 26.26958984 -48.42260742 25.61914062 C-46.67449674 24.61923559 -44.92639034 23.61932298 -43.17854309 22.61895752 C-41.35251266 21.57461073 -39.52532987 20.53230212 -37.69799805 19.49023438 C-31.67744213 16.05421654 -25.67611714 12.5848205 -19.67260742 9.11914062 C-18.57682373 8.48782227 -17.48104004 7.85650391 -16.35205078 7.20605469 C-15.32732666 6.6153418 -14.30260254 6.02462891 -13.24682617 5.41601562 C-12.34923584 4.8987793 -11.45164551 4.38154297 -10.52685547 3.84863281 C-7.93947953 2.40474268 -7.93947953 2.40474268 -5.53125 0.55371094 C-2.98510742 -0.63085938 -2.98510742 -0.63085938 0 0 Z " fill="#F7BE3E" transform="translate(206.985107421875,35.630859375)"/>
<path d="M0 0 C2.97 0 5.94 0 9 0 C9.33 8.58 9.66 17.16 10 26 C11.76085937 24.123125 13.52171875 22.24625 15.3359375 20.3125 C17.07083657 18.49947333 18.81443162 16.69524069 20.55908203 14.89160156 C21.76114079 13.63944356 22.95405006 12.37843171 24.13720703 11.10839844 C34.01664104 0.52269707 34.01664104 0.52269707 39.08300781 -0.8125 C41.54197697 -0.8125 43.63026382 -0.63391628 46 0 C45.45007108 3.95588582 43.59746667 5.77646999 40.81640625 8.546875 C39.97142578 9.39121094 39.12644531 10.23554687 38.25585938 11.10546875 C36.92264648 12.41451172 36.92264648 12.41451172 35.5625 13.75 C34.23508789 15.08224609 34.23508789 15.08224609 32.88085938 16.44140625 C26.26685508 23 26.26685508 23 24 23 C25.08425224 24.57531638 26.16853358 26.15061273 27.25292969 27.72583008 C28.21983404 29.13225137 29.18529942 30.53966291 30.14941406 31.94799805 C32.95830043 36.04823908 35.79137623 40.12889289 38.66015625 44.1875 C39.5569812 45.46790161 39.5569812 45.46790161 40.47192383 46.77416992 C41.6471951 48.45195317 42.83051347 50.12413124 44.0222168 51.7902832 C44.82332886 52.94016724 44.82332886 52.94016724 45.640625 54.11328125 C46.12047852 54.79173096 46.60033203 55.47018066 47.09472656 56.16918945 C48 58 48 58 47 61 C43.71835215 61.6446094 42.13291753 61.93880234 39 61 C35.73274591 57.73902909 33.43932122 53.90007753 31 50 C29.58698935 47.89337646 28.17039183 45.78915384 26.75 43.6875 C25.498733 41.79250266 24.24871376 39.89668078 23 38 C21.66906489 35.99838933 20.33470332 33.99910209 19 32 C15.07151495 33.60049391 12.60600377 35.64942372 10 39 C9.24662743 42.59969329 9.20967537 46.14370853 9.1875 49.8125 C9.16236328 50.79154297 9.13722656 51.77058594 9.11132812 52.77929688 C9.0526337 55.18576829 9.02341097 57.59292674 9 60 C6.03 60 3.06 60 0 60 C0 40.2 0 20.4 0 0 Z " fill="#FAF1F0" transform="translate(57,65)"/>
<path d="M0 0 C5.61796707 2.66285144 11.10474304 5.41229293 16.40625 8.66015625 C17.53172241 9.34682373 17.53172241 9.34682373 18.67993164 10.04736328 C20.16872762 10.96411513 21.64996742 11.89326901 23.12280273 12.83544922 C27.11457085 15.34676046 27.11457085 15.34676046 31.6796875 15.9765625 C34.36580333 14.84604237 36.73221099 13.50873639 39.1875 11.9375 C43.79764706 9 43.79764706 9 46 9 C46 14.94 46 20.88 46 27 C43.81375 28.36125 41.6275 29.7225 39.375 31.125 C38.69872559 31.56086426 38.02245117 31.99672852 37.32568359 32.44580078 C34.26570783 34.26931472 32.64986458 35.15945085 29.13232422 34.29638672 C25.9966 32.99859283 23.16146411 31.52773693 20.234375 29.8125 C18.65269531 28.88824219 18.65269531 28.88824219 17.0390625 27.9453125 C15.95367187 27.30335937 14.86828125 26.66140625 13.75 26 C12.64914063 25.35804687 11.54828125 24.71609375 10.4140625 24.0546875 C2.27557664 19.27557664 2.27557664 19.27557664 0 17 C-0.14517744 14.0906442 -0.18630796 11.280054 -0.125 8.375 C-0.11597656 7.57320312 -0.10695312 6.77140625 -0.09765625 5.9453125 C-0.07406223 3.96341477 -0.03819065 1.98167019 0 0 Z " fill="#E45D2E" transform="translate(205,53)"/>
<path d="M0 0 C12 6 12 6 15 8 C15.34057617 9.97119141 15.34057617 9.97119141 15.29296875 12.3515625 C15.28330078 13.20234375 15.27363281 14.053125 15.26367188 14.9296875 C15.23853516 15.81914062 15.21339844 16.70859375 15.1875 17.625 C15.16719727 18.97078125 15.16719727 18.97078125 15.14648438 20.34375 C15.11106925 22.56309789 15.06168461 24.78125188 15 27 C12.73595458 28.36680153 10.46498979 29.71844445 8.1875 31.0625 C7.22360352 31.64741211 7.22360352 31.64741211 6.24023438 32.24414062 C4.5371085 33.24130759 2.77054142 34.12812687 1 35 C0.01 34.67 -0.98 34.34 -2 34 C-1.34 34 -0.68 34 0 34 C0 22.78 0 11.56 0 0 Z " fill="#EB8E25" transform="translate(190,115)"/>
<path d="M0 0 C0.804375 0.46148437 1.60875 0.92296875 2.4375 1.3984375 C3.46488281 1.759375 4.49226563 2.1203125 5.55078125 2.4921875 C9.25227468 4.11921758 11.66773328 5.42061319 14.4375 8.3984375 C15.96745179 14.24889657 15.11512545 20.46921482 14.4375 26.3984375 C14.1075 26.3984375 13.7775 26.3984375 13.4375 26.3984375 C13.4375 20.7884375 13.4375 15.1784375 13.4375 9.3984375 C9.04275933 12.10131929 9.04275933 12.10131929 4.6730957 14.84423828 C0.11858285 17.54619099 0.11858285 17.54619099 -3.19140625 16.828125 C-3.97386719 16.35632813 -4.75632813 15.88453125 -5.5625 15.3984375 C-6.86960938 14.686875 -6.86960938 14.686875 -8.203125 13.9609375 C-9.06421875 13.4453125 -9.9253125 12.9296875 -10.8125 12.3984375 C-12.11960938 11.625 -12.11960938 11.625 -13.453125 10.8359375 C-15.5625 9.3984375 -15.5625 9.3984375 -16.5625 7.3984375 C-14.34518064 6.00023612 -12.11711846 4.63080392 -9.875 3.2734375 C-9.24916016 2.87511719 -8.62332031 2.47679688 -7.97851562 2.06640625 C-3.24145257 -0.76095076 -3.24145257 -0.76095076 0 0 Z " fill="#F7BF45" transform="translate(206.5625,88.6015625)"/>
<path d="M0 0 C0 5.94 0 11.88 0 18 C-2.289375 19.32 -4.57875 20.64 -6.9375 22 C-7.65929443 22.41765625 -8.38108887 22.8353125 -9.12475586 23.265625 C-13.88888889 26 -13.88888889 26 -15 26 C-15.33 20.06 -15.66 14.12 -16 8 C-12.596875 6.02 -12.596875 6.02 -9.125 4 C-8.05596436 3.37351562 -8.05596436 3.37351562 -6.96533203 2.734375 C-2.22222222 0 -2.22222222 0 0 0 Z " fill="#EB8E25" transform="translate(251,62)"/>
<path d="M0 0 C1.56039777 11.73632513 1.56039777 11.73632513 0 17 C-3.2279169 21.12772883 -8.21386412 23.18520555 -13 25 C-13.66 25 -14.32 25 -15 25 C-16.37412212 9.76590537 -16.37412212 9.76590537 -13.13671875 5.60546875 C-10.79849265 4.09384959 -8.59408096 3.0006968 -6 2 C-5.28328125 1.62746094 -4.5665625 1.25492187 -3.828125 0.87109375 C-2 0 -2 0 0 0 Z " fill="#EB8E25" transform="translate(220,98)"/>
<path d="M0 0 C11.625 5.75 11.625 5.75 15 8 C15.2208564 10.95064148 15.28060989 13.68368231 15.1875 16.625 C15.17396484 17.42679688 15.16042969 18.22859375 15.14648438 19.0546875 C15.11109051 21.03674378 15.05728234 23.01845551 15 25 C9.45375063 23.74845871 4.94283236 20.76563239 0 18 C0 12.06 0 6.12 0 0 Z " fill="#E45C2E" transform="translate(144,71)"/>
</svg>
